<svg id="Layer_2" data-name="Layer 2" xmlns="http://www.w3.org/2000/svg" viewBox="0 0 2998.7 3064"><defs><style>.cls-1{fill:#b40304;}</style></defs><path class="cls-1" d="M781.24.05C785,0,789-.18,791.63.94c3.58,1.5,5.78,4.63,9.8,5.94,5.54,1.79,14.78-1,20.18,1.18,3.16,1.27,4.21,5.06,6.83,6.83,3.1,2.1,9.86.79,13.65,2.08,4.66,1.57,7.68,5.52,12.17,7.42,3,1.28,10.66,3.09,15.43,2.07,2.68-.56,6.84-1,9.8-.29,5.83,1.5,8,5.87,12.76,8,3.14,1.43,8,.68,11.28,2.08,2.59,1.12,3.31,3.62,4.75,5.94,1.64,2.65,5.85,7.49,8.6,8.9s7.56,0,10.39,1.19c3.35,1.37,4.47,4.59,7.13,6.53a25.25,25.25,0,0,0,7.12,3.26c5.53,1.67,11.87-.08,16.32,2.67a52.45,52.45,0,0,1,8.91,7.72c1.12,1.49,2.11,3.62,3.56,4.75,2.87,2.24,8.75,1.16,12.17,3,2.85,1.51,4.64,4.66,7.12,6.53,2,1.52,4.18,2.62,6.23,4.15,1.76,1.3,3,3.42,5,4.46,4.43,2.19,11-.22,15.73,1.78,2.18.92,3.4,3.25,4.75,5s3.11,2.36,4.75,3.56l5,5.35c2.61,1.87,6.22,2,9.21,3.56,3.89,2,7.39,5.35,11,7.71,4.79,3.16,10.37,6.12,13.35,11,1.73,2.8,1.21,10.46,2.08,13.95,3.13,2.05,7.38,2.76,10.39,4.75,4.6,3.06,8.31,8.31,11.58,12.77.73,1,2,1.89,2.67,3,2,3.19,3.17,6.8,5.34,9.8,1,1.45,2.86,2.63,3.86,4.15,1.53,2.34,1.64,6.11,4.45,7.13,2.47,1.46,5.75-2.26,7.42-3,3.71-1.58,8.82-.43,11.57,1.49,3.31,2.29,2.19,8.51,4.46,11.87,1.3,1.92,3.76,3.34,5.64,4.75l5.34,5.64a25.64,25.64,0,0,1,5.34,4.74c2.22,3.05,2.6,7.52,4.75,10.69,2.45,3.6,8.34,5.51,10.69,8.9,1.87,2.71,1.78,6.94,3.56,9.8,1.46,2.35,4.54,3,6.23,5,1.48,1.79,2,4.21,3.27,6.24,1.48,2.42,3.56,4.73,5,7.12,3.2,5.16,4.22,12.06,7.42,17.21,1.08,1.73,2.78,3.32,3.86,5s1.63,3.56,3,5.05c2,2.16,5.31,3,6.53,5.93,2.44,5.85-.89,14.11,1.78,19.29,1.57,3.07,4.84,4.85,6.23,8.32,1,2.59.17,5.85.89,8.9a19.18,19.18,0,0,0,3.27,7.12c3.45,4.64,10.86,4.65,13.65,10.09,1.8,3.5,2.26,11.95,1.19,16.92v11c-.15,1.55-1,3.41-.6,5.35,1.47,6.33,8.39,6.59,10.09,12.76,1.2,4.32,0,11,0,16v27.6a41.57,41.57,0,0,0,0,14.84c.9,4.12-.7,9,.3,12.76,1.08,4,3.68,6,5.64,8.91,1.58,2.36,2.25,5.38,3,8.61,2.17,9.77-9.5,10.37-7.42,17.8,1.19,4.24,5.83,5.93,7.12,10.39.93,3.2.33,8.36-.29,11.28q.28,14.1.59,28.2c1,4.56,1.71,8.91,3.27,13.06,1.13,3,3.91,7.73,2.67,12.76-1.42,5.72-8.45,8.38-6.53,16.92.65,2.9,4.36,9.72,3.86,12.17-.76,3.67-3.28,5.92-4.16,9.49-.78,3.16.69,6.58,1.19,8.91.43,2-1,9.79-1.49,11.87-.7,3.23,0,8,.6,10.69.71,3.32-.59,9.41-1.19,12.16v10.69c-1.4,5.88-5,9.27-6.53,15.43l-.3,9.21a30.8,30.8,0,0,0,0,11c.69,3,2.17,7.06,1.19,10.68-1.91,7.08-7,10-9.2,16q-1,7-2.08,14c-1.6,4.24-5.75,6.62-7.72,10.39-2.38,4.59-1.49,11.63-3.56,16.62-1.63,3.93-4.69,6.91-6.23,11-1.3,3.45-1.15,7-3,9.8-1.36,2.08-3.73,3.85-4.75,6.23-1.48,3.46-.27,8.48-1.48,12.46l-3.86,8.91-3,12.46a26.91,26.91,0,0,1-4.75,6.83l-1.48.89a82.94,82.94,0,0,1-7.72,8.61c-1.13,1-2.68,1.74-3.56,3-1.8,2.49-.22,7-1.48,10.38-1.66,4.35-7,6.58-9.21,10.69-1.89,3.61,0,7.94-1.18,12.47-1.06,4.21-3.92,5.11-5.94,8-.54.78-.55,1.45-1.19,2.08-.53,9.39,4.48,6.54,6.53,11.87,1.16,3,.67,6.06,2.38,8.31s5,2.77,6.23,5.64.5,7.21,2.08,9.79c2.59,4.25,6.9,7.3,8.61,12.47,1.45,4.39-.52,11.82,1.48,15.73,1,1.88,3,3.39,4.15,5a21.58,21.58,0,0,1,3,6.82c1.67,6-1,14.87.89,21.08,1.68,5.53,6.55,7.41,8,13s-1.08,12.22.3,18.41a67.36,67.36,0,0,1,1.48,10.39c.26,4.74-1.48,12.15,3.26,12.46,1.36-1.79,5.91-7,8-7.72l8-.29c7.28-1.55,19.94-1.53,26.42,1.18,5.91,2.48,9.45,7.77,14.24,11.28,1.82,1.33,4,2.38,5.35,4.16,2.1,2.83,3.15,7,5.64,9.5s6.09,2.68,9.49,4.15c3.66,1.59,6.08,5,9.8,6.53,5,2.1,12.22.23,18.1,1.49,4.43.94,17.39,1.29,22,.29,2.78-.6,6.49.23,8.9-.29h7.13c4.06-.89,8.69-.35,12.46-1.49,5.28-1.6,8.87-5,14.25-6.23,7.4-1.74,9.49,4.34,15.73,4.45.87-.67,2.07-.83,3-1.48,1.64-1.19,2.74-3.27,4.74-4.16,3.45-1.54,7.8-1.14,11.58-2.37,6.18-2,10.54-4.58,17.81-6.24l14.84-.89c1.69.23,5.28.83,7.42.3,3.37-.84,5.52-3.31,8.91-3.86,4.34-.69,7.53,4.38,13,2.08,2.19-.91,3.33-2.86,5-4.16a29.61,29.61,0,0,1,8-4.45c4-1.31,7.92,1.59,11.58,0s4.54-6.46,9.5-7.72c6.41-1.62,11.75,2.69,17.51,1.19,3-.77,6.09-2.12,8.9-3s5.06-.74,7.42-1.78,4.09-3.17,6.83-3.85c5.27-1.32,7.55,4.08,12.76,2.37,7.78-2.55,11.5-9.66,19.29-12.17,4.2-1.35,9.69,0,14.25-1.19,3.42-.89,6.13-3,9.2-4.15,6.23-2.3,14.59-2.81,21.67-3.86,4.84-.72,7.94,2.31,10.09,4.45,1.06,1,2.47,3.29,5.34,2.38,3.06-1,4.21-4.71,7.42-5.64,4.54-1.32,8.46,1.75,13.65.59l10.69-3c5.16-1.21,12.85,1.85,16.62,3l14.55,2.08c5.06,1.41,9.85,3.2,15.13,4.45l17.52.89c2.9,0,5.75-.72,8.3.3,2.79,1.11,4.27,4.29,6.53,5.93a25.65,25.65,0,0,0,5.64,3c5.16,1.86,12-1.69,16.92.6,2.65,1.22,4.53,4.27,6.23,6.52,1.23,1.63,3.41,2.92,5,4.16s2.54,3.1,4.15,4.16c3.05,2,7.94,1.79,11.29,3.56,3,1.62,4.75,5.11,7.41,7.12A44.54,44.54,0,0,1,1810,1064l2.08,2.67c3.21,2.51,8.39,2.68,11.87,5,2.1,1.43,3.08,4.33,4.46,6.53,2.13,3.39,5.24,6.17,6.52,10.39,1,3.09.74,7.33,0,10.68a5.85,5.85,0,0,0-.29,2.38c1.16,5.22,4.85,12,1.78,18.1-2,3.88-6.57,5.59-8.31,9.8-1.41,3.4-.18,7.85-1.19,11.87-1.13,4.5-3.61,6.78-5.64,10.09s-.79,9.84-3,13.06l-5.94,5.64c-3.29,4.41-7.52,8.13-10.39,12.76-1.63,2.64-1.77,6.08-3.26,8.91-1.4,2.64-4.26,4.44-5.35,7.42s.14,7.11-1.18,9.79-4,4.12-5.94,6.23c-2.51,2.82-4.31,6.11-7.12,8.61-3.13,2.78-8,6.23-10.39,9.5-3,4.06-5.63,8.16-8.61,12.17-1.88,2.53-5,4.29-6.83,6.82s-3,5-4.75,7.43c-2.13,2.88-5.72,5-8.6,7.12-1.78,1.34-3.2,3.45-5,4.75-5.71,4-12.07,7-17.21,11.57-2.34,2.07-3.9,5-6.24,7.13s-5.55,3.44-7.41,5.93c-2.31,3.07-4.78,6.36-6.83,9.5-2.43,3.73-2.9,8.27-5.94,11.28-1.94,1.92-4.35,3.36-5.93,5.64-2.51,3.59-4,8.09-7.43,10.68-2.3,1.74-6.41,3-6.82,6.53-.24.35-.23.5-.3,1.19,1,.89,1.61,2.15,3,2.67,3.71,1.42,12.52-.47,11,5.94-.15.65-.68,1.54-.89,2.37l-2.37,1.78c-2.75,1.23-6.22,1.08-8.61,2.68-2.72,1.81-3.78,5.88-5.64,8.6-3.18,4.64-9.21,7.14-12.17,11.88s-2.35,11.4-4.45,17.21c-1.48,4.1-4.14,6.8-6.23,10.09-1.56,2.44-2.49,5.09-4.16,7.42s-4.3,3.91-5.93,6.23c-1.37,2-2,4.18-3.27,6.24l-5.64,6.53c-2.63,2.62-7.7,4.1-9.2,7.71-1,2.41.46,6.11-.3,8.91-.7,2.6-3.55,4.73-2.67,8.61.69,3,2.51,7.16.59,10.38-3.13,5.28-12.64,3.73-15.73,8.91-1.55,2.6-1,6.36-2.07,9.49-1.17,3.52-4.24,5.59-5.64,8.91-1.82,4.31-1.53,9.47-3.56,13.35-1.41,2.69-4.59,4.71-7.42,5.94-1.55.68-3.44.91-4.46,2.08-3.26,3.77-2.33,10-5,14-1.2,1.76-3.63,2.87-5.35,4.15-2.56,1.93-3.57,5.57-5.64,8-1.32,1.56-3.6,2.38-4.74,4.15-2.67,4.14.24,19.35-1.78,24.94-1.5,4.12-4.8,5.8-7.13,8.9-1,1.28-1.69,2.93-3,3.86-2.09,1.51-4.6,2.21-5.93,4.45-2.82,4.73,1.21,10-.3,16s-6.74,7.76-8.31,13.06c-1.65,5.56.91,12-.59,17.21-1.23,4.28-4.2,7.33-5.35,11.58-1.44,5.36,2.73,8.66,1.49,13.65-1.47,5.94-4.9,10.28-6.53,16-1,3.56,0,7.7-.89,11.57-.66,2.79-1,6.07-2.08,8.91-1.59,4.35-5.53,7.1-6.82,11.28-2,6.6,1.89,14.8-.3,21.37-2,6-7.26,8.66-8.91,15.43-.42,1.73.31,3.61.6,4.75,1,4,2.63,10.28,1.18,15.14-1.15,3.89-4.61,4.57-6.52,7.42-1.64,2.44-1,6.51-2.08,9.5-1.64,4.31-6.58,5.4-8,10.38-1.69,5.85,1.49,11.85,0,18.4-.44,2-.78,4.7-1.78,6.24-1.82,2.8-5,4.11-6.23,7.72-1.9,5.8,2.77,10.88,1.48,16-.89,3.56-3.36,4.65-5.93,6.53-1.18.87-1.66,2.52-2.67,3.57.06,5.78,4,6.64,6.23,10.09.71,1.1,1.86,4.34.89,5.93-1.91,5.59-10.08,3-10.09,12.47.68.85.83,2.07,1.48,3,2.22,3.07,5.62,3.38,5.64,8.9-4,4.7-11.1,14.19-7.12,23.75,1,2.44,5.47,7,7.42,8.9.09,1.49.44,2.25-.3,3.26-.93,2.93-3.91,3.59-5.64,5.64-.62.74-.82,1.71-1.48,2.38,0,9.16,6.9,9.33,8.61,16.32,2.09,8.55-10.07,10.46-7.72,19,1,3.45,6.13,6,4.75,11.28-1.1,4.14-7.1,13.83-5.94,19,1.34,5.93,5,8,5,15.14a24.22,24.22,0,0,0-1.78,3c-1.6,2.15-4,3.7-5.64,5.93l-5.64,5.34c-1.31,1.74-2.4,4.1-4.16,5.35-2.8,2-9,.55-11.57,2.67-1.29,1-2,3.1-3,4.45-2.2,3-8,5.2-13.66,3.56-8.36-2.41-10-13.11-19.88-13.35-4,3.6-17,6-24.93,3.56-4.65-1.44-5.76-5.6-9.2-7.42-3.67-2-8.94-.11-14-1.19-2-.42-6.51-.9-8.91-.3-4,1-5.23,4-7.72,6.53-1.76,1.78-3.89,2.93-5.93,4.46-4.41,3.3-6.85,7.45-14,8.31-5.75.69-9.38-6.4-14-7.72-3-.85-6.37.31-8.9.89-5.09,1.15-17.42-2.48-19.89-4.15-3.3-2.23-7.52-9.61-10.09-13.06-1.21-1.63-3.11-2.64-4.75-3.86-2.24-1.67-3.1-4.56-4.75-6.83-1.31-1.8-3.54-3.08-4.75-5-2-3.3-2.07-8.15-4.15-11.29s-5.9-4.91-7.42-8.6c-1.3-3.15.16-8.38-.9-11.87-1.53-5.12-5.54-8-7.12-12.77s1-10.43-.3-16c-1.58-7-1-16.74-1.18-24.92-.06-3-1.35-6.46-.6-9.8a36.88,36.88,0,0,1,1.49-5.94c.93-2.2,2.65-4.23,3.26-6.82.87-3.66-2.6-6.58-3.56-8.91-1.27-3.08-.31-10.42.59-13.65,1.74-6.14,7-8.53,8.61-14.54,1.34-5-1.54-10.24-.29-15.14,1-3.76,2-8,3-11.87,1.1-4.45.62-8.77,2.08-12.77,1.27-3.49,3.15-6.74,4.16-10.68,1.21-4.74-1-10.33.29-15.14,1.44-5.4,3.6-6.66,7.13-9.79,2-1.77,3.61-4.22,6.23-5.34,2.93-1.27,6.29-1.39,8.9-3,3.59-2.17,6.64-5.37,10.69-7.13,9.26-4,13.75-2.9,17.81-12.76q1.63-8,3.26-16c2-6,5.52-9.31,7.12-16.32,1.52-6.61-1.67-15.08.6-21.37,1.66-4.6,6.92-5.59,8.31-10.09,1.48-4.8-2.12-10.92,0-16,2.63-6.36,12.56-5.26,16.32-10.39,3.93-5.34-.47-10.55,1.19-16.62,1.32-4.82,6.54-4.77,8.91-8.31,1.91-2.88.77-8.46,2.67-11.28,1.09-1.62,3.17-3,4.74-4.15a60.48,60.48,0,0,0,8.32-8.61c2.91-4.67,2.72-12,7.12-15.14,3.84-2.76,10.6-2.12,13.06-6.23,1.76-3,.24-6.88,1.19-11,1-4.52,2-9,4.15-12.47,3-4.91,8.72-7.81,11.58-12.17,1.34-2.06,1.61-4.5,2.67-6.82,1.16-2.57,3.15-5.28,4.15-8,1.25-3.41,1-6.91,2.38-10.09s3.92-5.54,5.64-8.31c2-3.2,2.55-7,4.15-10.69s4.68-6.42,6.24-10.09c1.88-4.46,1.38-10.46,3.26-14.84,1.27-3,3.72-5.37,5.34-8,2.31-3.77,3-8.72,5.35-12.47,1.62-2.61,4.37-4.47,5.93-7.12,1.72-2.92,1.08-7.86,3-10.68l4.75-4.46c1.33-1.79,1.74-3.94,3-5.94,1.39-2.25,3.5-4.4,4.75-6.82,2-4,1.46-9.64,3.26-14,3.12-7.47,9.64-12.36,13.66-19,2-3.32,1.58-7.76,3-11.87s4.26-8.39,6.53-12.17c1.76-2.92,2.82-6.55,4.75-9.5,1.3-2,3.47-3.57,4.75-5.64q1.79-4.74,3.56-9.49c1.29-2.11,3.45-3.85,4.75-5.94,1.76-2.82,2.13-6.4,3.86-9.2,1.22-2,3.17-3.72,4.45-5.64,3.86-5.79,7.1-11.85,10.69-17.81,2.14-3.57,2.8-7.51,4.45-11.57,1-2.44,2.42-5.16,3.26-7.72,1.05-3.2,1.11-6.22,2.38-9.2,1.64-3.88,5-6.44,7.12-9.8s1.17-9.16,2.67-13.35c2.12-5.91,10.76-11.85,7.42-20.78-.72-1.92-2.27-2.83-3.56-4.16-2.78,0-7.31.09-9.5-.88s-3.79-3.17-5.64-4.46a27.07,27.07,0,0,0-8-3.26c-6.31-1.71-13.57,1.61-20.78,0s-12.39-4.06-19.29-5.64c-3.35-.77-11.13,0-14,.59l-8.6.3c-6.17,1.39-12.49,2.07-18.41,3.56-6.79,1.7-14.35.5-21.37,2.08H1382c-5.85-1.28-13.67-1.66-19.59-.3l-6.82.3c-6.3,1.41-7.33,5.41-12.17,7.42-5.51,2.29-19.37,1.4-25.23,0l-4.75-.3-6.53-1.48c-6.65-2.78-10.88-8.25-16.33-12.17-3.2-2.31-6.73-4.48-10.08-6.53a137.39,137.39,0,0,0-15.74-8.31c-.89-.39-1.5-.15-2.37-.59-1.66-.86-3.33-2.51-5.05-3.27-3.44-1.53-7.92-2.08-11-4.16-5.48-3.71-7.25-13.25-9.2-20.47q-.3-3.27-.59-6.53c-1.67-6.93-3.39-13-5.35-19-.92-2.84-.69-5.74-1.78-8.31s-3.43-4.36-5-6.53c-1.48-2-2.4-4.22-3.86-6.23-2-2.69-4.52-4.66-5.94-8-1-2.28-2.17-7.13-1.48-10.38a33.54,33.54,0,0,0,.3-9.8c-.57-2.47-.24-4.25-2.38-5.05-1-.79-1.88-.46-3,0-1.41,3.27-1.53,8.64-.59,13.06.32,1.55.78,5.13.3,7.13-.58,2.38-1.19,5.41-2.38,7.42-1.05,1.77-2.73,3.68-3.56,5.64-1.5,3.52-1.15,8.34-2.67,11.87-1.23,2.84-4.28,4.65-5.94,7.12s-2.44,5.45-4.15,8c-2.16,3.22-4.91,5.84-6.53,9.79-1,2.4-2.55,9.84-1.78,13.36.61,2.8,1.14,10,.29,12.76-1.38,4.46-7.22,6.22-7.71,10.39-1.76,2.88,2.39,10.87,1.18,16-1.28,5.47-3,5.77-6.23,8.9-3.42,0-7.26-.94-10.39-.3a7.15,7.15,0,0,1-1.19,1.49c-.26,4.93,3.27,6.13,3.57,11a46,46,0,0,0-4.16,6.53c-1.22,2.87-1.13,6.14-2.67,8.61-1.74,2.79-4.83,4.42-6.23,7.71-2.39,5.61-2.17,12.31-5.35,16.92-2.82,4.1-8.12,5.69-12.16,8.61-3.31,2.38-8.12,9.08-9.8,13.06a17.2,17.2,0,0,0-.89,8.9c.36,1.57,1.53,4.27,1.19,6.24-1.23,7.07-4.92,11.25-6.83,17.21-1.16,3.6-.2,8.23-2.08,11-3.11,4.57-13.29,2.15-16.92,7.13-3.94,5.39-8,10.29-9.79,17.8a13.32,13.32,0,0,0,.3,4.75,26,26,0,0,1-.6,10.69c-1.53,5.08-6.14,7.14-8,11.57s-1.13,10.42-3,14.55c-3.34,7.51-14.59,7.06-16.91,15.73-1,3.88,1.21,6.74,2.37,8.61,3.39,5.44,7.19,6.89,5.34,15.13-1,.65-1.7,1.72-3,2.08-3,.84-5.86-.75-8.31,0-1.91.58-4,2.67-5,4.15-3.62,5-6.08,12.62-7.42,19.59-.51,2.64.78,6.59,1.18,8.91.32,1.79-.54,5-.89,6.53-.8,3.66.9,6.55,0,10.09-1.89,7.49-9.05,10.55-11,17.51-1.13,4.08,1.32,7.55,2.08,10.09.81,2.72.47,10.64-.3,13.36-2.9,10.24-16.31,14.35-19.29,24.63-.2,2.28-.4,4.55-.59,6.83-.8,2.87-1.58,5.74-2.38,8.6l-.3,10.1c-1.13,4.75-2.92,9-4.15,13.65-.4,3.47-.79,6.93-1.19,10.39-2.06,8-3.89,17-5.93,25.23-.4,3.26-.79,6.53-1.19,9.79-1.63,6.09-3.11,12.79-4.75,18.7-.3,2.38-.59,4.75-.89,7.13a38.93,38.93,0,0,1-5,11.28c-1.53,2.25-3.91,3.75-4.75,6.82-1,3.62,1,7.08,0,10.39-.91,3-5.6,7-4.45,11,.7,2.46,4.43,4.59,3.86,8-.67,4-4.5,7.45-5.64,12.46-1.57,6.91,4.24,10.76,2.08,17.81-1.6,5.23-7,6.75-8,12.46-.78,4.15,2.91,6,3,10.39-2.33,2.44-6.43,8.94-5,14,.87,3.14,3.74,7.67,2.08,12.17-2.35,6.35-11.88,5.06-9.2,16.92l2.07,1.78c6.66.16,6.62-4.84,11-5.64.38-.21,1,.11,1.78.3a18.48,18.48,0,0,1,1.78,3.27c3.93,12.14-13.88,17.48-13.36,27.3,4.31,3.31,9,12.72,4.75,19.89-1,1.66-2.83,2.52-4.16,3.86-2.45,2.47-2.8,5.46-3,10.38l-.3,4.16a25,25,0,0,1-3,16.62c-1,1.62-2.44,3.22-3,5.34-1.78,7.1,7.91,11.18,5.64,20.78-1.51,6.38-6.07,9.23-7.72,15.43-1.53,5.77,1.18,12.89-.89,17.81-2.5,6-8.26,5.68-8.3,15.73,0,9.64,4.5,13.93,6.23,21.37s-3.88,11.48-5.35,16.33c-1.39,4.6.28,11.78-1.48,16-2.39,5.76-9.5,11.79-13.36,16.91l-2.67,2.37c-2,2.85-1.86,7.45-3.86,10.39-2.68,3.95-10.46,2.95-13.06,7.13-4.06,6.53.23,19.82-3.85,26.41-3.81,6.14-9.41,11.14-15.14,15.44a17.65,17.65,0,0,0-3,3.56c-1.79,2.35-5.22,3.39-8.61,4.15h-5.64c-3.76,0-8.41.59-12.46-.29-2.52-.55-6.67-1.11-9.5-.3-5,1.44-8.8,9.57-15.14,8-5.48-1.36-6.89-6.35-12.76-7.72-7.61-1.78-10.07,3.59-13.65,5.93-4.2,2.74-13.08,2.48-19,1.19-2.33-.51-3.91,0-5.64-.89-2.06-1.08-3.22-3.69-5-5.05-3-2.18-6.69-3.34-8-7.12-1.76-5,1.82-10.52,0-15.73-.56-1.6-1.88-2.2-3-3.26-6.19,0-10.79,4.29-16.32.89-5.07-3.13-7.09-8.25-8.31-15.44-.39-2.3,1-5.86.3-8.61-1.21-4.49-5.15-5.15-7.42-8.31-2.47-3.41-2.78-8.29-6.24-10.68-2.52-1.74-5.27-1.88-8.6-3-5.39-1.76-9.1-4.17-11.58-8.9-.88-1.68-2.32-4.75-1.48-8,1.32-5.17,5.76-8.43,7.72-13,1.64-3.91,1.07-9.24,3.26-12.47,2.07-3,5.6-4.56,7.12-8.31,2.39-5.87-1.9-13.18.3-18.7,1.27-3.18,5.74-3.72,7.42-6.53,1.81-3,.32-9.47,1.48-13.06,1.63-5,5.59-7.68,7.13-12.76,1.8-6-.53-14.93,2.08-19.89.81-1.55,2.55-2.53,3.56-3.86,4.67-6.19,10.31-11.2,15.73-16.62,1.85-1.86,4.48-3.43,5.93-5.64,2-3.06.58-9.33,2.67-12.46,1.42-2.12,4.71-2.94,6.24-5s1.89-4.46,3.26-6.53,3.44-3.82,4.45-6.23c2-4.66-.3-12.3,2.08-16.33,2.16-3.66,6.92-5.11,8.9-8.9,3.33-6.33-3.5-11.92-.88-19,1.67-4.54,5.61-7.52,7.71-11.57s1-10.2,2.67-14.84,5.65-7.27,7.42-11.58c1.44-3.49-.82-8.38.6-12.17,1.26-3.38,5.06-4.58,6.82-7.42s1.23-7.52,2.67-11c1.29-3.07,4.91-4.89,7.13-7.12a20.33,20.33,0,0,0-.89-6.53c-.47-1.42-2.1-3.34-1.49-5.64s2.26-4.13,3-6.24c1-2.85.93-5.94,2.38-8.31,1.2-2,3.21-3.68,4.15-5.93q1.05-5.79,2.08-11.58c1.77-4.25,6.66-6.12,8-10.39.76-2.39-.4-5.14-.89-7.12-.9-3.67.87-7.12,1.49-9.79s-.17-5.14.59-7.42c1.76-5.26,7.65-7.07,9.2-12.77,1.72-6.31-2.73-13,1.19-18.4,3.44-4.75,9.94.06,13.95-2.67,3.46-1.15,4.25-6.38,2.67-10.09s-5.83-4.94-8-8c-1.2-1.7-1.45-3.67-2.08-5.94-.3-1.07-1-2.91-.6-4.45,1.45-6.26,7.38-6.21,9.21-11,2.4-6.29-1.43-14,.59-20.18.94-2.9,1.71-6.52,3-9.5,1.44-3.41,3.87-6.16,5-10.09s-.3-10.25,1.19-14.24c1.17-3.15,5.25-4.29,5.94-7.43-6-4.66-2.17-10.27.89-14.54,2.72-3.79,5.21-7.29,10.39-8.6,4.23-1.08,8.41.84,12.76-.89a26,26,0,0,0,5.64-3.27c1.21-.92,2.08-2.59,3.56-3.27,5-2.26,13,2.53,13.06-5.63-1-.62-1.79-1.74-3-2.08-3.67-1.06-6.28,1.91-9.5.89-3.54-1.13-2.8-6.07-7.71-6.23-2.41,3.51-5.62,5.23-10.39,6.52-1.67.46-5,1.15-6.53,0-.79-.88-.69-2.7-.3-4.15,1.19-4.41,1-10,3.27-13.36,2.07-3.15,5-5.29,6.23-9.49,1.27-4.42.49-8.37,2.67-11.58,1.92-2.83,5.52-4.15,6.83-7.72,2.11-5.75-.76-13.81.89-19.59,1.45-5.1,5.93-6.6,8.31-10.68,1.62-2.79,1.24-6.9,3-9.5,2.5-3.76,10.17-5.05,14.55-6.83,2.09-.84,4.34-.42,4.75-3-3.06-1.3-11.26-3.73-9.5-9.21.66-2,2.69-3.48,3.86-5,1.77-2.36,6.37-8.29,7.12-11,1.07-3.85-2.15-6.69-1.19-11,1.66-7.38,3.42-14.9,4.75-22.27.51-2.82-1.53-5.84-2.07-8-1.13-4.51,1.58-8.27,2.37-11.58q.45-6.83.89-13.65c.68-2.81,1.64-6,2.38-8.9.29-2.28.59-4.55.88-6.83,1.11-3.8,3.32-6.82,4.16-11,1.2-6-5.94-8-4.16-14.54,1-3.66,4.17-5.94,5.35-9.5,2.12-6.42.06-16.35-1.19-21.37v-11c-.7-2.71-2.57-4.75-3.86-6.83a29.76,29.76,0,0,1-3-8.31l-.3-6.23c-1.14-5.1-1-10.4-2.08-15.44V1189a109.28,109.28,0,0,0-5.64-16c-1.5-3.66-1.74-7.48-3.26-11q-2.24-3.85-4.45-7.72c-1.3-2.62-1.42-5.71-3-8-1.42-2.08-3.93-3.53-5.94-5l-4.16-4.75c-.7-.5-1.47-.61-2.07-1.18-5.36-.4-7.18,1.94-10.69,3.85-7,3.8-13.83,5.81-18.4,11.88-2.51,3.32-5.79,6.29-8,9.79-2.63,4.14-4.27,8.91-7.13,12.76-2,2.73-6.14,6.23-8.9,8.32a30.46,30.46,0,0,0-5,5.63c-1.29,1.68-3.65,3.14-5.34,4.46-2.89,2.25-4.72,6.13-7.72,8.31-2.54,1.85-5.85,2.44-8.61,4.15-3.12,1.93-5,5.4-8,7.42s-6.69,2.91-9.5,5c-2.24,1.71-3.08,5.08-4.75,7.42-1.85,2.6-4.56,4.52-6.53,7.12-3.58,4.74-9.15,7.71-14,11.28q-1.62,1.79-3.26,3.56c-2,1.47-4.24,2.38-6.23,3.86-3.21,2.38-5.71,6-9.2,8.61l-7.42,7.71A20.57,20.57,0,0,0,775,1270c-1.56,2.07-3,5-5,6.53-4.77,3.6-11,6.8-14.54,11.57-2.1,2.8-4.71,7.81-7.42,9.8-2.49,1.82-5.79,2.93-8,5-2,1.85-3.42,4.37-5,6.53l-4.86,4.53c-1.2,1.6-2.5,3.65-4.15,4.75-2.17,1.45-5.06,1.37-7.72,2.38-3.58,1.36-5.79,4.65-8.9,6.53s-7.08,1.89-9.8,3.85c-4.75,3.43-7.15,10.67-12.76,13.07-3.58,1.52-12.66.14-15.44,1.78-2,1.2-3.33,3.46-4.74,5.34-.6.79-1.64,1.12-2.38,1.78q-3.27,3.4-6.53,6.83c-3.92,2.84-9.41,4-13.35,6.82-2,1.45-3.22,4.36-3.86,7.13-1.38,5.88,1.46,12-2.67,14.84-1.3.89-2.66,1.16-3.86,2.08-1.36,1-2.23,3.06-3.27,4.45-1.2,1.6-3.26,2.5-4.75,3.86s-2.38,3.17-3.56,4.74l-5.34,4.75c-3.56,4.79-6.56,9.85-10.09,14.55a61.58,61.58,0,0,1-10.09,9.2c-2.18,1.34-5.37,1.48-7.42,3s-2.78,4-4.46,5.64-4.2,2.81-5.64,4.74c-.88,1.18-1.36,2.54-2.37,3.56l-4.45,4.16c-1.94,2.62-2.42,6.39-4.16,9.2-3.62,5.86-8,11.71-12.17,17.22-2.9,3.86-7.31,5.45-11.27,8.31-2.07,1.48-6.47,6.74-8,8.9-2.83,4-2.17,11.56-5,15.43l-4.16,3.86a87.31,87.31,0,0,1-12.17,13.66c-1.87,1.63-4.57,2.64-5.94,4.75-1.92,3-1,8.24-3,11-1.18,1.63-3.37,2.39-5,3.56-2.79,2-8.38,6.84-10.39,9.49-2.29,3-5.29,5.57-7.42,8.62-1.53,2.19-2.34,4.62-3.86,6.82-1.13,1.64-3.06,3-4.15,4.75-2,3.18-2.41,7.59-4.75,10.39-2.11,2.52-6,4.24-8.61,6.23-1.24.94-2,2.59-3,3.86-2.36,3.19-5,6.29-7.41,9.5l-6.54,6.23a69.46,69.46,0,0,1-6.82,7.72c-1.78,1.79-3.2,4.58-5.64,5.64-6.18,2.68-14.28-.61-14.25-6.83,1.43-2,1.75-4.4,3.57-5.93,3.65-3.11,15.79-9.68,13.35-16.92-1.84-5.48-8.55-4.34-8.61-12.17,2.08-2.13,3.14-4.14,6.53-5,2.23-.6,5.23.24,6.83.6,4.37,1,12.54-.35,14.84-1.79,4-2.5,5.93-8,7.12-13.35,1.31-5.81-1.75-12.06.89-16.33,4.26-6.87,20.13-.69,24.34-6.53,1.59-2.2,2.56-8.2-.59-9.49-3.81-3.3-8.39,5-13.95,1.18-1.3-.9-1.7-1.07-1.78-3.26-.7-1.36.64-4.21,1.19-5.35,2-4.13,3.72-7.15,7.71-9.19,5.78-3,8.85,2.28,13.06,1.18,2.79-.73,4.11-3.29,5.64-5.34,2.72-3.64,6.7-4.45,6.83-11h-.3v-.3a15.38,15.38,0,0,1-6.83-1.19,8.67,8.67,0,0,1-1.18-3.56c1-1.3,1.63-2.88,3-3.86.89-.65,2-.88,2.67-1.78,1.9-2.78,1.79-7.28,3.56-10.09,2.63-4.17,7.21-6.57,10.09-10.39,3.27-4.34,5.73-9.77,9.5-13.65,1.85-.1,4.6-.8,6.82-.3,3.83.87,8.46,2.37,12.47.3,2.27-1.18,3.63-3.55,5-5.64.9-1.34,4.27-4.55,2.67-7.12-.67-2.16-5.52-6.12-8.31-6.24-2.36,2.18-5.43,3-9.21,3.86-4,.86-8.85-1.89-10.38,2.38-1.74,2-1.44,7.52-2.08,10.39A25,25,0,0,1,515,1460c-5.47,1.35-11.75.27-14.54,4.16-2.06,2.86-1.47,7.78-3,11.28-1.4,3.23-5.53,4.25-7.13,7.42-.59,2.87-1.18,5.73-1.78,8.6-.81,1.59-2.83,2.48-3.86,3.86-2.33,3.14-3.55,7.32-7.42,8.91-4.13,1.69-10.46,0-14.24-.89-3.32-.77-7.44-.18-10.39-.89-4.72-1.14-10.14-.87-13.65-3.27-.9-.6-1.34-1.89-2.08-2.67-.2-3-.88-7.64.59-9.79.88-1.29,3-1.67,4.16-2.67,2.5-2.11,2.84-7.84,1.48-11.28a5.07,5.07,0,0,0-1.78-.6c-1.91,1.57-3.79,2.54-4.75,5s-.46,5.46-1.78,7.42l-5.34,4.16c-1.15,1.56-1.83,3.2-3,4.74a11.92,11.92,0,0,1-2.67,2.08c-2.61,2-5.12,5.06-7.42,7.42-1.36,1.39-2.35,3.55-3.86,4.75-2.33,1.85-5.6,3.61-7.42,5.94a23.55,23.55,0,0,0-3.86,7.12c-1,3.15-.72,5.75-2.37,8-1.29,1.77-4.05,2.37-5.35,4.16-1.91,2.65-2.28,6.43-4.15,9.2s-5.57,4-6.53,7.42c-1.77,6.33,7.51,7.24,12.46,5.93,4.49-1.18,11.42-9.18,14.55-12.46-.07-4.74-4.65-10.09-3.56-14.25,1.18-4.55,5.27-7,8.6-9.49,2.67-2,4.65-5.23,8.31-6.24,4.39-1.2,6.51,2.23,9.2,3a9.7,9.7,0,0,0,5.35-.59c4.6-1.92,21.55-8.08,24.34-.3,2.83,3.17-.42,8.52-1.79,10.39-2.44,3.36-4.74,5.41-9.49,6.53-8.85,2.08-21-4.86-22,6.23.24.31.11.08.3.6,2.72,1.2,7.26,1.53,8.91,3.85,2.51,3.55-.44,17.36-2.38,20.48-2.09,3.36-6.36,4.79-9.5,7.13-3.34,2.48-4.65,7-7.12,10.38-1.2,1.66-3.3,2.72-4.75,4.16-2.59,2.56-4.79,5.82-7.72,8-1.06.8-2.47,1.33-3.26,2.38-1.67,2.2-2.55,4.76-4.16,7.12-1.75,2.59-4.6,4.31-5.64,7.72-1.6,5.23,2.16,8.41,3.27,11.87.48,1.5.06,2.25,0,3.86-1.83,1.41-5.15,4.55-5.94,6.83-.94,2.74.64,5.3-.29,8-.85,2.46-3.6,4-4.75,6.23s-.77,4.7-1.49,7.72-2.71,8-1.48,11.58c.46,1.34,1.77,2,2.67,3,7.62-.15,5.22-7.55,7.42-13.06,1.19-3,4.71-4.42,6.53-6.82.68-.91,1.22-2.27,2.08-3,1.8-1.48,4.05-2.19,5.93-3.56,2.22-1.61,3.25-4.81,5.94-5.94a15.21,15.21,0,0,1,7.42-.59c5.2,1.22,10.72,4.91,7.72,12.17-2.07,5-7.15,9.37-11,12.76-1.64,1.46-3.5,2.61-4.15,5-1.39,5.15,5.6,6.31,5.64,12.46-.33.4-.27,1-.59,1.49-1.58,2.36-4.71,3.75-6.24,6.22-1.22,2-.91,4.74-1.78,7.13-.64,1.76-2.16,3.46-2.67,5.34-1.48,5.42,4,7.56,2.37,13.36-1.42,5.15-7,6.18-8.6,10.68l-.6,17.52v4.75c-.64,2.59-2.56,4.53-3.26,6.82-1.07,3.46,2.59,8.1,3.26,11,1.65,7.08-4.83,7.83-5,13.36,1.37,1.44,4.36,5,5,6.83,1.43,3.82,1.61,14.6,0,17.8-1.94,3.89-6.58,5.45-8,9.8-1.18,3.59-.48,8.84.3,12.47l-.3,12.46V1853a43.28,43.28,0,0,0,.3,14.54c1.48,5.89,4.64,9.89,6.23,15.43,2,7-.33,19.67-3.27,23.75-2.47,3.43-6.21,4.44-9.79,6.83-2.92,1.94-4.85,5.07-8.31,6.53s-8.51.59-12.47,1.78c-3.62,1.09-5.92,3.89-8.9,5.64-2.38,1.38-5.05,1.69-7.12,3.26s-3.21,4.62-5.35,6.23a67.88,67.88,0,0,0-13.06,13.65L328.5,1953c-3.4,4.5-7,9.78-14.84,9.79-.74-.7-1.81-.86-2.67-1.48a13.23,13.23,0,0,1-2.37-3c-1.1-1.45-3-2.44-4.16-3.86-4-5-7.35-10.94-12.76-14.54-2.92-1.94-7.65-1.69-10.69-3.56-3.53-2.18-4.63-6-9.49-7.13-5.81-1.3-7.66,4.26-10.39,6.24-4.49,3.24-20.23,4.54-25.83.89-4.33-2.83-2.09-8.48-4.74-12.47-1.85-2.77-5.75-3.88-7.72-6.53-2.32-3.11-4-6.62-6.23-9.79-1.49-2.13-3.91-6.29-2.38-10.39.55-1.47,4.7-6.15,5.94-7.42a6.12,6.12,0,0,0-.3-3c-.89-2.48-3.64-3.34-5.34-5s-2.26-3.77-3.56-5.64c-1.56-2.23-3.58-3.79-4.45-6.83-1.63-5.66.72-12.48-.6-18.7-.37-1.75.15-4.7-.3-6.82-.85-4-1.4-11.4-.29-15.74q1-3.7,2.08-7.42c.43-1.9-.52-3.85-.89-5-1.2-3.8-2.33-9.88-.9-14.25,1.56-4.72,5.9-6.52,7.43-11.28.72-2.26.48-7,0-9.2-1.12-5.18.72-16.4,2.07-19.59,1.14-2.68,3.31-5,4.45-7.72s1.18-5.72,2.68-8c1.77-2.71,5.54-4,7.12-6.82s.61-7.54,2.08-10.39c1.86-3.62,4.93-6.57,6.82-10.39,1.67-3.35,2.08-7.22,4.16-10.09,1.45-2,4.54-2.67,5.93-4.75,1.78-2.65,0-8.42,1.79-11.28,1.32-2.14,4.44-2.79,5.93-4.75,4.51-5.93,9.58-11.13,13.95-17.22,3-4.15,4.69-9.48,7.72-13.65a24.92,24.92,0,0,1,5-4.45,24.13,24.13,0,0,0,4.16-4.75c.75-1,2.07-1.51,3-2.37,2-1.94,3.44-5.15,5.64-6.83,1.67-1.28,4.17-2.41,5.34-4.15,2.07-3.1,1-9.09,3-12.17,2.21-3.53,6.88-2.79,10.39-5s4.68-6.59,9.2-7.72c7.83-2,7,8.14,14.24,8.31.77-.56,1.72-.39,2.68-.88,2.66-1.37,4.06-3.67,5-6.83.32-1,.65-4,0-5-.36-1.2-.88-1.66-2.37-1.78-1.84-1.13-4.79,0-6.83-.3-3.49-.57-10-5.23-8.31-10.68,1.48-4.74,9-12.29,12.47-15.73l3.26-3a30.67,30.67,0,0,0,3.86-6.53c.78-1.89.81-3.62,1.78-5.34,1.32-2.34,4.07-3.86,5.64-5.94,3.13-4.14,5.88-8.09,8.9-12.47l7.13-6.52c1.89-2.59,3.17-5.4,5-8,.92-1.27,2.39-2.51,3.27-3.86q2.22-5,4.45-10.09c1.36-2,3.73-2.94,5.64-4.45s2.94-4.45,4.45-6.53c1.39-1.91,3.76-3.28,5.05-5.34,1.09-1.74,1.28-3.88,2.37-5.64,1.74-2.81,4.3-5,5.64-8.31s1-6.8,2.67-9.5c2.22-3.61,5.15-7.22,7.72-10.68,2.18-3,5.23-5.06,8-7.42,1.76-1.5,2.88-4,4.75-5.35,1.29-1,3-1.65,3.86-3,2-3,1.35-8,3.26-11,1.21-1.86,3.18-3.53,4.46-5.34s2.2-3.81,3.56-5.64,3.45-3.2,4.75-5c4.36-6.18,7.56-12.86,11.87-19,2.18-3.1,5.59-5.41,7.72-8.61,1.74-2.62,2.49-5.58,4.15-8.31,1.77-2.91,4.14-5.71,5.94-8.61,1.06-1.7,1.52-3.46,2.67-5,.87-1.2,2.35-1.78,3.56-2.67,2.21-1.64,3.68-4.62,5.34-6.83,1-1.36,2.91-2.11,3.86-3.56,1.69-2.58.77-6.63,2.08-9.8s4.55-4,6.23-6.53c2-2.89,1.12-8.23,3-11.28,3.59-5.9,9.86-9.63,14-15.13.64-.86,1.87-1.69,2.38-2.67,2-4,.31-10.72,2.67-14.55,1.29-2.1,3.33-3.74,4.74-5.63,1.86-2.5,3.2-5.24,5-7.72,1.35-1.82,3.52-3,4.75-5,1.91-3.12,1-8.14,2.37-11.87,1.35-3.56,5.81-4.54,7.13-8,1-2.72-.15-7,1.19-9.5s4.6-3.71,6.23-5.94c1.35-1.85,2.21-3.8,3.56-5.64,1.53-2.08,3.65-4,5-6.23,2.17-3.51,2.13-8.49,3.86-12.47S574.45,1214,576,1210c1.31-3.53.71-8.13,2.37-11.28,1-1.91,3.2-3.1,4.46-4.75,1.6-2.11,2.85-4.37,4.45-6.53s4.3-4,5.64-6.53c1.48-2.85,1.37-6.48,2.67-9.5,1.52-3.54,5.33-5.27,6.83-8.9.49-2.38,1-4.75,1.48-7.13,1.13-2.93,4-4.94,5.64-7.42s2.09-5,3.56-7.42c1.29-2.11,2.88-4.43,4.16-6.53a36.61,36.61,0,0,0,3.85-8.9c.65-2.3.33-4.44,1.19-6.53,1.56-3.77,5.32-5.11,7.13-8.31,1.27-2.26,1.36-4.9,2.67-7.13,1.17-2,3.22-3.46,4.45-5.34,2.52-3.85,1.59-10.79,3.86-14.84,1.52-2.71,4.41-4.94,6.23-7.42.91-1.24,1.45-3,2.67-3.86,5.54-4.15,11.48-7.67,15.14-13.65,1.71-2.8,1.27-7.31,3-10.09,1.52-2.5,4.11-4.39,5.63-6.83,2.12-3.37,2.63-7.93,4.76-11.28,1.58-2.5,4.1-4.48,5.34-7.42,1.38-3.29.74-7.55,1.78-11.28,1.24-4.45,4-7.7,5.64-11.57.73-1.69.83-3.3,1.78-4.75,2.7-4.11,11.61-3.82,13.06-7.72.71-1.1.18-3.26-.3-4.15-1.42-2.69-3.11-3.69-3.27-8,3.92-4.41,15.45-9,15.44-16-.5-.53-.45-1.14-.89-1.79-1-1.4-2.9-2.4-3.86-3.85-3.54-5.36,1.31-11.52,4.75-13.66,1.88-1.16,4.2-1.4,5.94-2.67l2.07-2.67A14.87,14.87,0,0,0,725,931c-4-2.63-9.73-1.8-14.84-.6-3.71.87-7.45-.12-11.58.6-2.66.45-10.08,1.1-13.65.29-5.46-1.23-9.8-3.41-15.14-4.45-2.88-.56-6.26,1.41-8.31,2.08-3,1-6.44,1-9.79,1.78h-22.4l-4.45-.3-5.94.89c-2.76,1-6.53,3.77-11,2.67-3.84-.94-7.27-2.62-11.28-3.56-2.72-.63-6.5.13-8.61.6l-14.54-.3c-4.88,0-10.63,1.26-15.14,0-6.67-1.86-7.21-5-11.57-8.31a44.35,44.35,0,0,1-4.46-3.27L538.44,915c-3-2.12-8.33-1.72-11.28-3.86-1.36-1-2.26-2.79-3.27-4.15-1.66-2.24-4.19-3.81-5.93-5.94a16.07,16.07,0,0,0-1.49-2.08c-3.32-2.73-7.19-4.57-9.5-8.31-2-3.19-1.52-8.46-3.56-11.58-1.19-1.83-3.47-2.76-4.75-4.45s-2.46-4.21-4.15-5.64c-1.33-1.12-3.11-1.87-4.16-3.26s-1.64-2.76-2.67-4.16c-1.6-2.19-5.25-2.87-6.53-5.34-1.39-2.69-.42-7.13-1.78-9.8-.84-1.63-2.6-2.89-3.86-4.15a21.86,21.86,0,0,1-5.93-9.5c-1.8-6.84,3-15.57,1.18-20.77-1.59-4.56-7.34-5.63-8.9-10.39-2.13-6.51,2.91-10.81,1.78-17.51-.51-3.05-3.3-6.33-2.08-10.69,1-3.73,4.89-5.42,5.94-9.2,1.83-6.58-4.38-9.53-3.27-15.14s4.64-8.66,5.94-14c.85-3.43-.32-7.78-.89-10.38-.92-4.16.17-9.75.89-13.06,1.12-5.16-1.83-10.36-.3-15.44,2.47-8.16,10.43-6.65,14.55-12.17A20.69,20.69,0,0,0,488,677.2c.81-3.05.06-6.54,1.19-9.21,1.34-3.18,5.2-4.14,6.52-7.12,1.47-3.29.69-8.29,2.08-11.57,1.53-3.6,5.71-5.19,7.13-8.91s0-9.5,1.48-13.06c1.65-4,5.42-6.57,6.83-10.68,1.3-3.83.51-8,2.37-11s5.18-5,6.53-8.31c2-4.93-3.83-7.74-1.78-12.77,1.08-2.65,5.49-7.84,7.72-9.5,1.43-1.06,2.92-1.73,3.86-3.26,2-3.34.5-10.21,2.07-14,1.28-3,4-4.56,5.64-7.12q1.78-4.76,3.56-9.5c1.57-2.32,4.92-3.34,6.24-5.94,2.37-4.67-1.27-14.13.59-19.88,1.72-5.33,5.93-8.22,7.72-13.66,1.87-5.71.1-14,2.37-19,1.84-4,6.12-6.18,7.42-11V454.76c1.34-6.32,1.37-17.18,0-23.45v-4.75c0-4.67.28-9.5-.89-13.06-1.86-5.7-5.87-9.72-7.72-15.43-2-6.17,1-14.77-1.18-20.78-1.51-4.15-5.47-6.1-7.12-10.09-1.91-4.59.16-11.89-1.19-17.22-1.59-6.23-6.09-8.79-7.72-15.13l-.3-7.13V315.85a39.88,39.88,0,0,0,1.19-8.9l-.89-.3c-1.55-1-4.18-.5-5.64-1.48-2.77-1.88-6-12.65-4.15-17.22,6.15-3.71,17.33-6.7,17.21-16.32-.87-.94-1-1.89-2.37-2.38A3.22,3.22,0,0,0,545,269c-2.15,1.69-5.15,4.77-7.72,5.64l-5,.29c-2.76.62-6.17.58-8.9,1.19l-10.09.3c-5.4,1.4-7,5.51-11.28,7.12L492.2,285c-3.53,1.34-5.45,5-8.6,6.83-3.41,2-9.72.16-13.66,1.78-4.57,1.88-7.15,6.35-11.87,8.31-5,2.06-11.89-1.24-16.62.89-3.27,1.47-4.27,6.1-7.12,8s-9.1.79-12.17,2.68c-2.68,1.65-4.79,4.3-7.42,5.93l-8,3c-2.29,1.39-4,3.68-6.23,5-3.25,2-8.34,1.58-11.57,3.56-2.45,1.49-4.32,3.86-7.13,5-3.76,1.58-19.26,2.76-23.44.59-3.45-1.79-7.32-10.11-6.24-14.84a33.59,33.59,0,0,1,4.16-2.38c1.31-.54,2.48-.45,3.56-1.18.77-.53,1.13-1.7,1.78-2.38-.07-7.75-10-9.78-6.83-19.29,1.37-4.15,6.23-5.22,7.72-9.2s.47-8.49,2.37-11.57c2.86-4.63,8.77-6.83,7.13-14.25-1.83-1.22-2.64-2.09-5.94-2.08-1.49,1.48-5.48,5.27-8,5.34-4.37-6.42,1.27-7.69,3.56-12.17l2.67-9.5c1.67-2.65,5.1-4,6.83-6.53,2.35-3.47.63-9.72,2.37-13.65,2-4.57,6-8,8-12.76,1.66-3.9,1.05-9.47,3.27-12.77l5.34-5c1.8-2.66,1.41-6.86,3-9.79,1.05-2,3.48-3.45,4.75-5.35,1.12-1.68,1.58-3.62,2.67-5.34,1.73-2.73,4.64-4.61,6.53-7.12a27.18,27.18,0,0,1,5.64-5.94c2.82-2.13,5.15-5.27,7.72-7.72,2-1.94,4.83-3.37,6.52-5.63a113.06,113.06,0,0,1,22-22.56l5.94-6.53c4.39-3.17,11.49-3.38,15.73-6.53,2.41-1.8,4.22-4.87,6.23-7.13,2.44-2.74,5.63-4.89,8.61-7.12,2.47-1.86,3.88-5.09,6.53-6.83,1.66-1.09,3.67-1.28,5.34-2.37,3.42-2.24,5.85-5.52,10.39-6.83s9.56-.25,13.06-2.37C527.2,73.31,531,66,537.4,62.08c2.33-1.44,5.73-.69,8.61-1.78,4.47-1.69,6.44-6.21,11.57-7.72,4.48-1.31,12,.73,16.32-.89,3.36-1.26,4.15-5,6.83-6.82s7.45-.22,11-1.49S597,37.6,602,36l9.5-1.48c3.14-1,5.88-2.86,8.9-3.86s5.8-.84,8.91-1.78c3.89-1.18,8.26-2.28,12.46-3.26h5.65c6.79-1.52,16.24-.39,22.25-2.68,4.08-1.54,6.06-5.58,10.39-6.82,4.75-1.37,11.11,1.79,16-.3,4.42-1.89,6.11-6.69,11.28-8,9.91-2.53,9.74,7.61,17.81,7.71.65-.63,1.72-.84,2.37-1.48,2.29-2.26,3-5.39,6.53-6.53,4-1.32,10.39.11,14,.89s10.14-.26,13.06-.89h8c3.87-1,5.17-4.09,8-5.94,1.2-.77,3-.67,4.15-1.48ZM2163.18,247.88c7.12,0,7,5.12,12.17,6.53,3.58,1,7.91-3.15,11-3.86,3.57-.82,8.46,2.82,11.58,3.57,5.91,1.42,9.58-4,14.83-2.38,4,1.27,5.06,6,8.91,7.42,2.48.88,5.25-.59,8.31.3,4.79,1.39,8.86,4.28,13.65,5.64s10.72.11,15.14-.89c5.62-1.27,16,.81,20.18,1.78,4.35,1,8.52-1.07,12.47,0a18.68,18.68,0,0,1,6.23,3.26c1.48,1.11,2.31,3.09,4.16,3.86,2.94,1.23,8-.47,10.68.89,3.76,1.92,5.81,6.35,9.8,8,6.81,2.84,13.35-3,20.48-.6,2.35.78,5.48,2.31,6.82,4.16,1.21,1.65,1.93,3.57,3.57,4.75,1.83,1.32,4.55,1.44,6.52,2.67,2.48,1.54,4.24,4.12,7.13,5.34,5.37,2.27,14.57.09,19.59,2.37,2.23,1,3.93,3.21,5.93,4.46,3.56,2.21,8.5,2.68,10.69,6.23,2.38,3.86,0,9.46,1.78,13.06.78,1.56,3.11,2.87,4.75,3.56,14,5.86,12.15-15,25.23-10.09,4.29,1.61,6.93,5.63,11,7.42,3.47,1.53,8,1.64,11,3.56,2.63,1.67,4.35,4.63,7.42,5.94,4.32,1.83,10.58,1.07,14.25,3.56,2.83,1.92,2.4,5.82,3.85,9.2,1.77,4.09,7.07,4.68,9.5,8,1.69,2.31,2.47,5.71,6.24,5.93a5.44,5.44,0,0,1,.89-1.19c0-4.84-1.16-8.34-.3-12.17l.89-.29c2-1.2,6.15.9,7.42,1.78,2.49,1.7,3.84,4.4,5.64,6.83,2.55,3.42,6.23,5.1,7.72,9.79.85,2.68-1.4,9.47.59,10.68,3.92,2.39,9.86-4.89,14-2.08,3.38,1.31,4.11,8.27,2.08,11.58-2.5,4.08-8,6.15-11.87,8.91-1.41,1-4.55,2.79-3.56,5.93.37,1.2,1.57,1.59,2.37,2.38,2.37,0,4.24.14,6.23-.89,3.76-1.94,5.47-5.35,11.28-3,2.65,5.91-3.11,8.4-1.49,14.24,1,3.48,4.66,4.93,5.65,8.61,1.19,4.45-1.75,8.94-.3,13.36,1.56,4.75,7.43,5,8.9,9.79,2,6.54-3.1,13.54.6,19,2,2.88,7.48,3.23,8.31,7.12a2.88,2.88,0,0,1,0,3.27c-1.79,6.07-13,6.13-13.06,16,4.2,4.46,6.74,16,4.75,25.23v8.91c-.44,2-1.56,5.05-.9,7.72,1.43,5.69,8,5.44,10.1,10.38,1,2.29,1,7,.29,9.8-1.08,4.69-2.09,15-.89,20.77.71,3.39,1.18,9,0,12.17-1.24,3.33-4.48,5.42-7.12,7.42-1.69,1.28-3.16,3.64-4.45,5.35l-3.56,3.26c-2.68,3.7-2.55,9.6-5,13.65s-7.56,7-5.94,14.84c2.07,10-2.46,13.8-5.93,19-1.55,2.31-2.74,5.1-4.15,7.42-1.1,1.79-1.51,3.64-2.67,5.34-1.46,2.12-4,3.71-5.35,5.94-1.53,2.48-1.15,6.33-2.67,8.9s-4.47,4.62-5.64,7.72c-1.64,4.36-.65,9.64-3,13.06-1.27,1.87-3.81,2.81-5.64,4.15a37.45,37.45,0,0,0-8.6,9.5c-1,1.64-1.09,3.64-2.08,5.34-1.57,2.69-4.06,5.11-5.34,8-.87,2-1.22,3.94-2.38,5.64-1.58,2.3-4.32,3.94-5.94,6.23-2.66,3.78-4,8.46-6.53,12.47-1.25,2-3.22,3.71-4.45,5.64q-2.22,4.44-4.45,8.9c-1.07,1.69-2.74,3.4-3.56,5.34-1.73,4.07-1.24,9.59-3,13.66-1.21,2.85-3.87,4.71-4.75,8-1,3.74,3.12,8.37,3.86,11.58,1.34,5.74-3.26,9.33-4.75,12.76-.92,2.12-1.21,4.07-2.37,5.93-1.45,2.31-4.08,4-5.64,6.24s-1.88,4.9-3.27,7.12c-.85,1.37-2.34,2.59-3.26,3.86-1.55,2.13-2.59,4.42-4.16,6.53-2.6,3.51-6.3,6.25-9.79,8.9-1.18.9-1.8,2.66-3,3.57-4.28,3.31-7.56,7.17-11.87,10.38-1.5,1.12-2.43,2.94-3.57,4.46a24.92,24.92,0,0,1-5,4.45c-2.14,1.61-3.34,4.43-5.64,5.93-4.21,2.75-10.89,2.56-15.14,5.35-4.83,3.16-5.9,10.9-11.27,14.24-3.07,1.91-9.91.74-12.47,2.38-1.64,1-2.69,3.17-3.86,4.74s-3.22,2.42-4.75,3.57c-2.25,1.69-3.49,4.7-5.94,6.23-2.09,1.31-4.74,1-7.41,1.78a20.2,20.2,0,0,0-6.53,3c-1.66,1.23-2.74,3.26-4.16,4.75-3.91,4.1-8.91,7.46-12.47,11.87-2.45,3-4.28,5.65-7.41,8l-5.65,6.24c-4,2.71-11.76,1.48-15.73,4.15q-1.62,1.79-3.26,3.56c-2.13,1.62-4.52,3-6.53,4.75-1.43,1.26-2.54,3.1-4.16,4.16-3.12,2-7.64,2-11.27,3.56-4,1.71-7.33,4.77-10.69,7.12-2.41,1.7-5,2.77-7.42,4.46-4.13,2.9-8.57,7.4-12.17,11-2.3,2.29-5.54,3.51-5.64,8,.86.89,1.38,2.24,2.37,3,4,2.91,9.82,6.32,12.47,10.39,2.15,3.29,1.5,8.91,3.86,12.17,1.54,2.12,4.13,3.74,6.23,5.34,1.7,1.29,3.12,3.66,4.46,5.34.31.39.77.28,1.18.59A24.06,24.06,0,0,1,2254,1048c2.12,3.42,4,9.08,5,13.35.8,3.46-.17,6.73.59,9.79.71,2.82,2.39,7,1.49,11-.69,3-3.65,8.6-2.68,12.17,1.2,4.35,6.29,9.08,3.57,15.73-1.5,3.65-5.68,4.89-7.13,8.31-.49,3.17-1,6.33-1.48,9.5-1.4,3.84-4.68,5.61-6.83,8.6-2.35,3.29-3.26,7.74-5.64,11-2,2.65-6,3.26-8.9,5-1.91,1.2-3.23,3.45-5.05,4.75l-6.53,3.56c-2.06,1.5-3.25,4.15-5,5.94a72.93,72.93,0,0,0-7.42,8l-5.33,5c-1.27,1.67-2.49,3.8-4.16,5-2.87,2.13-6.63,3.21-9.5,5.35s-5.49,6.23-7.72,9.2c-1.68,2.23-4.55,3.7-6.23,5.93-3.6,4.78-7.72,8.63-11.28,13.36l-5.93,5.34c-5.21,6.9-12,13-18.41,18.7-3.18,2.83-8.21,5.52-8.31,11.28,1.43,1.72,2.28,3.47,4.45,4.45,4.87,2.19,9.24-.34,12.77-1.78,3.18-1.3,11.28-2.87,16.32-1.78s10.91.3,16.62.3h31.46l14.25-.3c3.34.75,6,1.55,8.31,3.26,2,1.45,3.17,3.72,5.64,4.75,3.51,1.47,7.35,1,10.09,3,2.47,1.79,4.75,5.81,7.13,8,5.49,5.1,11.4,8.1,13.35,16.91,1.74,7.84-5.78,9.6-8,13.36-1.72,2.91-.38,8.53-2.08,11.28-1.07,1.73-3,3-4.45,4.45a54.22,54.22,0,0,0-4.75,5.94c-1.39,1.84-3.75,3.07-5,5-2.71,4.15-1.16,11.63-3.26,16.62-1.14,2.71-7,10.83-9.2,12.47-2.66,2-5.66,4.56-7.42,7.42-2.55,4.14-1,11.49-3,16.32a10.52,10.52,0,0,1-4.15,5c-2.17,1.11-4.61.58-7.13,1.48s-5.51,4.88-4.45,9.21c1.15,4.69,5,5.39,7.42,8.6,1.47,2,2.54,4.44,5,5.34,3.85,1.38,8.07.91,11.58,2.38,3.66,1.53,6.45,4.35,10.39,5.64,10.4,3.39,16.64.45,19.29,12.46,1.66,7.51-5.44,8-7.71,11.58-1.61,2.56-.21,7.75-1.49,10.69-1.64,3.75-6.07,5.13-7.42,9.49-.63,2-.3,5-.3,7.43,0,7.2,1.23,19.11-.89,24.63-1.75,4.55-6.27,6.47-7.71,11.87l-.6,6.53c-.76,3.08-1.94,6.54-2.67,9.5-1.06,4.26,1.65,7.75,0,11.28-.31.67-1.35,1.2-1.78,1.78a96.32,96.32,0,0,1-7.42,8.6l-4.15,3.86c-2.39,3.31-2,9.29-4.16,12.77-1.3,2.09-3.56,3.21-5.05,5-1.81,2.24-3.27,4.57-5.34,6.53-1.17,1.11-2.66,1.89-3.56,3.27-1.92,2.94-.45,8.82-1.78,12.46-1.56,4.26-8.4,12-11.57,15.14a44.61,44.61,0,0,1-4.46,4.45c-2.65,1.93-5.71,3.11-8.31,5-3.45,2.56-5.41,7.19-8.9,9.79-2.44,1.81-5.21,2.59-8,4.16-2.46,1.37-4.79,4.27-6.82,6.23-1.86,1.78-8.88,9.94-6.54,13.36,1.63,4.65,14.28,3,20.49,3,2.28,0,5.42.29,6.82,0,1.81-.38,3.09.09,4.45-.6,3.44-1.74,5.2-5.5,9.21-6.83,4.68-1.55,11.6.06,15.73-1.78,4.41-2,4.85-5.63,11.27-7.12,2-.46,4.28.27,5.65.59,3.22.77,6,.31,8.6,1.49,1.88.84,3.34,2.8,5.05,3.86,3.65,2.25,9.29,2,13.35,3.85,3.84,1.77,5.91,5.31,10.69,6.54h11.87c7.69,0,20.14-1,27.61,1.48,4.92,1.61,7.86,5.38,12.16,6.83,3.91,1.31,8.08-.22,11.28,1.78,3.78,2.36,5.75,6.2,10.69,7.71,6.77,2.07,16.48-1.28,23.15,1.19,4.26,1.58,6.1,5.93,10.68,7.12s9.13-1.75,14.25-.59c5.51,1.25,12.1,1.33,18.11,2.67,3.55.8,7.09-1.57,10.68-.29s4.43,5.27,7.42,7.12c3.17,2,9.23.87,12.77,2.37s4.93,5.45,8.6,6.83c4.17,1.57,10.9-.61,14.84.89s5,6.41,8.91,7.72c4.82,1.61,11-1.24,16,.29,6.45,2,8.64,7.54,15.73,9.21,1.94.45,4.25-.28,5.65-.6,4.13-.94,13.51,0,16.32,1.19l11.28,6.53c3.33,1.42,7.43,1.64,10.38,3.56s5,5.65,8.91,6.82l7.12.3c4.87,1.08,11.78.3,17.22.3h6.53a25.19,25.19,0,0,1,7.12,2.37c1.54.94,3,2.16,5,2.67,4.48,1.15,7.93-2.3,12.47-.89,2.2.69,4.48,2.37,6.53,3.27s3.71,1,5.34,2.08c2,1.29,3.23,3.65,5.05,5,1.41,1.07,2.74,1.9,4.16,3,2.82,2.13,4.44,6,8.3,7.12,3.56,1,5.62-2.25,6.83-3.86a10.4,10.4,0,0,1,11-3.56c5.74,1.41,8.43,5.26,13.36,7.13s11.65.63,16,2.67c3.06,1.43,5.34,4.86,8,6.82,5.32,3.91,10.72,7.18,16,11,2.31,1.66,3.68,4.6,5.94,6.23,4.68,3.38,14.56.5,20.48,3,3.23,1.35,4.78,4.3,7.12,6.53,1.65,1.57,4,2.63,5.34,4.45a27.75,27.75,0,0,0,4.75,5.34,12.72,12.72,0,0,1,2.08,1.49c1.52,1.72,2.58,4,4.45,5.34,2.81,2,6.72,2.78,9.79,4.45,2.51,1.36,4.75,3.56,7.13,5s4.7,2.27,6.82,3.86c1.09.8,8.11,9.46,8.61,10.68l.3,3.27c-.68.85-.63,1.62-1.78,2.07-2.65,2.24-9.73,0-11,3.56s2.43,5.58,3.56,7.13c1.77,2.43,2,5.58,3.26,8.61,1.43,3.36,4.19,5.21,5.94,8,2.69,4.29,2.56,14.54,1.19,20.78a16,16,0,0,0-.3,5.64c1.47,6.24,6.58,6.53,8.61,11.27a11.24,11.24,0,0,1,.59,5.94c-.38,1.66,0,2.8-.59,4.15-2.23,5.12-7.64,4.9-12.17,7.72-2.17,1.35-3.45,4-5.64,5.35-2.44,1.44-7.32,1-9.5-.3-5-3.07-8.34-9.29-18.11-5.34-2.58,1-4.3,3.88-6.53,5.34s-4.59,1.81-6.52,3.26c-1.63,1.22-2.54,3.49-3.86,5-.85,1-2.33,1.73-3.27,2.67-5.07,5.07-11,11.35-19,13.36-2.63.65-5.32-.48-7.13-.9-4.53-1-6.75,2.91-11.28,1.49-2.58-.81-4.75-3-7.42-3.86-4.19-1.29-9.61-.2-13.35-1.78-4.41-1.86-6-6.65-11-8-3.88-1.06-7.65.82-11,.89-4.37.08-9.71-2.27-13.35-1.49-4.56,1-7.82,2.57-12.17,3.57s-8.32-2.39-11.87,0c-2.58,1.73-3.47,6.13-5.35,8.6-2,2.7-7.62,4.92-10.68,6.83s-5.34,4.71-8.31,6.53c-4.65,2.84-12.43.62-17.52,2.67-3.28,1.32-4.59,4-7.12,5.94a98.24,98.24,0,0,0-9.79,8.9c-4.88.36-7.18-3.17-9.8-5.94-8.36,0-9,6.5-12.46,11.28a20.77,20.77,0,0,1-4.45,3.86c-3.07,2.32-5.28,5.9-8.61,8-2.74,1.75-10.7,2-12.47,4.16s-3,10.16-3.86,13.36a19.81,19.81,0,0,1-5.63,2.67c-3.84,1-7.14-.42-8.91,2.37-1.31,2.07-.68,8.31-1.19,10.69a17.39,17.39,0,0,1-5.93,3c-2.87.67-5.6-.31-8,.59-3.42,1.27-4.7,5.16-7.43,7.12-4.38,3.16-15.37,2.7-19.59-.3-1.8-1.28-8.1-8.86-8.9-11-.4-2.76-.79-5.54-1.19-8.31-1.59-3.66-6.52-4.16-11.87-4.15H2417c-4.09,1.13-5,4.94-7.13,8-1.5,2.13-4.1,3.58-5.63,5.64-1.4,1.88-2.46,3.78-3.86,5.64-2.68,3.56-7.24,6-10.39,9.2-2,2-3.65,4.64-6.23,5.94-4.51,2.28-11.59,1.32-15.44,4.15-1.09.81-1.84,2.46-2.67,3.56-1.31,1.75-3.55,2.87-4.75,4.75s-1.77,5.35-4.15,6.24c-1.88,1.47-8.39-.52-11.58-.6-.42.62-1.17,1.07-1.48,1.79-.5,2.17-1,4.35-1.49,6.52-1.7,4-8.47,12-12.46,13.65a11.67,11.67,0,0,1-4.16.3c-1-.93-2.43-1.26-3.56-2.08-2.27-1.63-4-4-5.94-5.93v-3.56c.69-2.06,2.71-3.44,3.86-5,2.28-3.16,3.19-6.48,7.42-7.71h4.16c4.35,0,7.79.38,11-.9,2.53-4.39,5.37-9.4,6.83-14.54,1.14-4,.38-8.26,3.26-10.39,1.16-.85,2.6-1,3.86-1.78,2.23-1.37,4.3-3.34,7.12-4.15l7.13-.6c3.78-.94,9.43-2.53,11.87-5,.54-.56.65-1.53,1.19-2.08.34-5.16-1.44-6-3-9.5-.71-1.61-1.33-4.43-.3-5.94,1.25-4.54,7.05-4.69,9.5-8,2.64-3.58,2.13-7.61,3.86-12.17,1.52-4,5.26-4.71,7.12-7.42s1.53-7,3.27-9.79c1.17-1.9,3.47-3,4.74-4.75s1.77-3.61,3-5.34c1.36-2,3.91-3.38,5.33-5.35,3.42-4.69,5.84-9.9,9.21-14.54,1.45-2,3.87-3.4,5.34-5.34a20.84,20.84,0,0,1,3.56-4.16,15,15,0,0,0,3.27-2.67c.94-1.26,1.44-2.58,2.37-3.86,1.33-1.82,3.52-3,4.75-5,2.34-3.85,1-11,3.56-14.84,1.68-2.51,4.36-4.08,5.64-7.13,1.11-2.65.79-5.88,2.08-8.31,1.4-2.64,4.72-3.86,5.93-6.82s.17-7,1.49-9.5c1.58-3,8.05-4.4,6.82-9.8-1-4.42-4.59-6.61-6.82-9.79-1.55-2.21-2.54-5-4.75-6.53-3.21-2.18-8.24-2.13-11.58-4.16-3.67-2.23-6.8-5.83-11.28-7.12-4.08-1.18-9.46,0-13.05-1.48-4.12-1.75-5.26-6.76-9.8-8-4.8-1.33-10.15,1.16-14.54-.3-4.57-1.5-5.79-6.51-10.69-8-5.26-1.61-12.94.85-17.81-1.18-3.24-1.36-4.65-5.14-7.71-6.53-2.79-1.27-6.83-.38-9.8-1.49s-5.46-3.5-8-5c-3-1.82-6.44-2.46-9.2-4.45s-5.41-5.44-8.61-7.12-9.11-.26-12.76-1.78c-4.2-1.75-6.76-5.84-11-7.42-3.52-1.32-8.39,0-12.17-1.19-5.27-1.6-6.73-6.55-11.28-8-2.67-.86-6.31.13-8.91-.6-4-1.1-6.63-3.58-10.09-5-4.81-2-10.15-1.93-13.95-4.75l-3.86-4.15a186.63,186.63,0,0,1-15.13-12.47c-2.47-2.19-4.62-6.19-7.13-8-1.75-1.28-4-1.51-5.94-2.68s-3.53-3.14-5.34-4.45l-7.12-3.86c-4.53-3.24-7.42-8.85-11.87-12.17-2.82-2.1-6.1-3.53-8.9-5.63-1.84-1.38-2.85-3.74-4.46-5.35-1.84-1.84-4.36-3.26-5.93-5.34a48.6,48.6,0,0,0-3-3.86l-4.46-4.15c-1.11-1.48-2-3.72-3.56-4.75-3.18-2.16-8.75-1.73-11.87-3.86-2.55-1.75-9.38-10.07-10.68-13.06-1.39-3.18-1.69-8.92-4.75-10.39-1.59-1.31-2.92-.14-3.86.89-2.74,3-1,8.85-3,12.76-1.34,2.64-4.94,3.82-5.93,6.83-1.46,4.38.38,8.16-2.08,11.58-1,1.31-2.55,2-3.86,3l-4.46,4.75-3.85,3.56c-1.91,2.62-2.89,5.61-4.46,8.61-4.16,8-13.1,13-16.32,20.78-2.11,5.13,1.56,12.39-.59,17.81a24.06,24.06,0,0,1-5.94,8.31l-2.08,1.48c-1.46,1.91-2.42,4-3.86,5.94-.84,1.16-2.45,2.07-3.26,3.26-1.85,2.71-1.73,7-3.56,9.8-1.13,1.73-3.14,2.87-4.75,4.15-2.41,1.91-3.91,5.77-6.53,7.72-5.14,3.82-11.25,8.11-13.65,14.54-1.16,3.09-.24,7.48-1.49,10.39-1.78,4.19-5.87,6.52-7.42,11.28-1.17,3.59.19,8.55-1.18,11.87-1.5,3.62-5.21,5.21-7.13,8.31s-1,8.79-2.67,12.47c-1.21,2.7-4.74,3.72-6.23,6.23-1.36,2.29-.31,6-1.19,8.9-.76,2.51-4.13,5.16-5.94,6.83.12,7.41,9,8.39,4.75,18.4-1,2.4-3,4-4.45,5.94-1.94,2.71-3.19,5.84-5.64,8-2,1.77-4.8,3.08-5.94,5.64-2.16,4.89,1.27,11.78-.88,16.63-1.88,4.2-6.77,6.29-8.61,10.68s.3,10.85-1.19,15.43c-1.4,4.3-5.94,5.33-7.42,9.2-1.57,4.14.56,10.16-.89,14.55-1.29,3.9-4.54,5.71-6.23,8.9-2,3.86-1.45,9.85-3.27,14-1.23,2.79-4.65,4-6.23,6.53-1.41,2.24-.9,5.12-1.78,8-1.11,3.66-7,11.42-10.39,12.77-6.41,2.59-9-3.79-13.65-4.45a5.74,5.74,0,0,1-1.19.59c-2,4.34-1.4,11.33-4.15,14.84-1.68,2.14-5.42,2.92-7.72,4.45s-4,4.49-7.13,5.34c-5.13,1.42-8.1-2.16-10.09-4.15l-9.49-8.9c-1.75-1.76-3.36-4.18-5.94-5-5.38-1.82-8.58,3.07-14.25,1.48-3-.84-4.55-4-6.23-6.23-1.9-2.53-4.89-4.3-7.12-6.53-1.73-1.73-3.11-4.15-5.35-5.34-4.18-2.23-9.2-2.56-11.87-6.23-3.51-4.85-1.34-10.32-3.26-16.33-1.66-5.15-6.32-7.18-7.72-12.76-1.1-4.36,0-12.73,0-18.11v-4.75c-1.23-5.3-4.12-7.24-6.53-11-1.14-1.76-1.57-4.58-2.08-6.82a23.62,23.62,0,0,1,.3-8c1-4.79.53-9.57,1.48-14,.87-4-.9-8.92.3-12.46.88-2.62,3.09-4.42,4.45-6.53,1.18-1.84,1.56-4.8,2.08-7.13,1.13-5-.14-15-2.08-18.1-1.81-2.91-4.64-4.7-5.64-8.61-.59-2.31-.07-4.44,0-6.53.23-6.73.57-14.26-.89-19.89-.79-3.06-2.34-6.23-4.75-7.71-4-2.45-10.24-1.78-14.24-4.75-2.59-1.92-6.24-7.61-8.31-10.39-2.51-3.37-7.23-4.69-8.61-9.2-1.63-5.32,1-13-.6-18.4-1.17-4-5-5-5-10.1,1.78-1.8,3.77-4.31,3.86-7.71-.57-.67-.67-1.64-1.19-2.37-1.44-2-3.7-3.46-4.45-6.24-1.72-6.32,5.09-12.74,6.82-16.92.75-1.81.83-3.43,1.78-5,1.23-2,3.2-3.92,4.46-5.94,2-3.14,2.6-6.94,4.75-9.79l4.45-3.86c4.54-5.09,9.43-9.73,14.24-14.55l5-4.74c2.6-3.57,1.28-7.23,3-11.28,1.2-2.87,4.62-3.56,6.23-5.94,2.07-3,1.2-8.81,3.27-11.87l3.26-3c1.83-2.45,2.78-5.37,4.45-8,1.33-2.09,3.44-3.77,4.75-5.94,2-3.33,2.19-7.72,4.45-10.69,3.1-4.06,11.55-3,14.55-7.12,1.69-2.34,1.34-6.43,3-8.9s5-3.79,6.82-6.23,3-5.08,5.34-6.83c.93-.7,2.25-1.19,3-2.08a21.75,21.75,0,0,1,3.27-3.86c10-7.52,20.4-14.58,30.57-22l5.34-5.64c2-1.42,4.27-2.19,5.94-3.86,1.39-1.39,2.25-3.59,3.86-4.75,2.42-1.74,6.25-1.36,9.2-2.67,3.58-1.59,5.83-5.76,8.9-8,3.7-2.71,8.66-4.26,11.28-8,1.87-2.67,2.28-6.15,3.86-9.2,1.29-2.49,3.92-4.3,5-6.82s.6-5.45,1.48-8.31,3-4.78,3.86-7.42c.49-2.87,1-5.75,1.48-8.61,1.68-4.11,3.54-8.87,5.94-12.47,1.46-2.19,3.63-3.88,4.75-6.53l2.37-11.28c1.25-2.81,4.25-4.21,5.94-6.52.51-.71.6-1.49,1.18-2.08a14.54,14.54,0,0,0-.59-5.64c-.77-.51-1.49-1.45-2.38-1.78-3.88-1.47-14.69,1.15-16.91,2.66-3,2.08-3.86,7-6.83,9.21-2.6,1.91-6.54,2.23-9.2,4.15-2,1.43-2.94,4.31-4.45,6.24-.84,1.06-2.46,1.83-3.56,2.67-2.49,1.87-4.27,4.59-6.83,6.53-3.73,2.81-6.91,7.59-10.68,10.39-3.21,2.37-7.32,1.8-12.47,1.78h-5.64c-3.1-.77-7-3.44-11-2.08-6.77,2.29-10.58,8.38-17.22,10.39-11.38,3.44-11.64-5.22-17.8-7.13-7.58-2.34-11.45,4.46-17.81,2.67-5-1.41-8.61-5.72-14.25-7.41l-6.83-.3c-6.47-1.42-11.78.34-16.32-3-2.51-1.83-7-13.58-8.31-17.21-.3-1.88-.59-3.77-.89-5.64.75-5.16,2.75-8.71,3.86-13.36q.15-6.67.29-13.36c1.31-5.88,1.09-12.33,2.38-18.1l.3-5.94c.51-2.19.67-5,1.48-7.12l5-10.69c2.24-6.8-1.12-15.47,2.38-21.07,1.6-2.57,4.25-4.3,6.53-6.23,1.61-1.37,2.86-3.64,4.15-5.34l3-2.68c2.91-4,3.06-10.52,5.94-14.54a43.92,43.92,0,0,1,7.71-8c1.8-1.47,3.1-3.69,5-5l5-2.67c2.12-1.48,3.76-3.92,5.93-5.34,2-1.29,4.37-1.63,6.23-3,1.7-1.23,2.89-3.36,4.16-5,1.62-2.14,4.47-3.29,5.94-5.64,2-3.13,2.61-7.48,5.34-9.79,3.79-3.21,9-4.83,13.06-7.72,2.19-1.54,3.82-4.06,5.93-5.64a37.07,37.07,0,0,0,5-3.86l3-3.85c2.62-1.93,6.2-2.59,8.9-4.46,4.13-2.84,4-10.1,8-13.06,1-.76,2.21-1,3.26-1.78,2.09-1.51,3.69-3.94,5.94-5.34,3.41-2.13,7.22-3.33,10.39-5.64,2.23-1.62,4-4.3,5.64-6.53,1.25-1.67,3.31-2.93,4.45-4.75,1.74-2.78,2-6.85,3.86-9.5l6.53-5.64c1.26-1.73,2-3.61,3.26-5.34,1.15-1.57,3.15-2.69,4.45-4.15.75-.84,1.1-1.77,1.78-2.67,2.23-3,5.55-5.23,7.72-8.32,4-5.62,7-12.25,11-17.8,1-1.42,2.71-2.55,3.86-3.86,1.55-1.77,2.47-4,3.86-5.94s3.63-3.6,5-5.64c1.31-1.88,1.65-4.3,3-6.23s3.74-2.77,5.64-4.16c2.4-1.74,9.16-11.88,9.2-16a3.06,3.06,0,0,1-.89-1.19c-3-.3-7.37,1-10.09.3-8.93-2.42-23.36-.86-32.65-3l-7.12-.6c-4-1-6.34-3.78-9.79-4.74s-5.68,1.86-9.21.89l-7.71-3.56-10.09-2.08c-3.36-1.43-5.64-4.54-8.91-5.94s-7.4-1.25-10.68-2.67c-3.47-1.5-6.63-4.06-10.39-5.34-5.1-1.74-12.06-.36-16.92-2.38-2.82-1.17-4.55-3.44-6.83-5-4.45-3.14-10.7-4.61-12.76-10.09-1.49-4-.79-9-2.37-12.77-1.35-3.18-4.28-5.37-5.64-8.61-1.83-4.33-2.88-22-1.19-27.6,1.77-5.9,4.6-6.19,7.42-10.09,1.79-2.48,2.7-5.54,5.64-6.83l9.79-2.07c5.61-2.26,10.11-5,16.92-6.53,7.84-1.83,18.16,1,24.93-1.49,3.43-1.25,6-3.67,9.21-5,4-1.73,8.92-2.47,13.35-3.57,10.44-2.57,22.07,2.09,32.65-.29,3.81-.86,8.08-.8,11.57-2.08,4.68-1.71,8.86-4.48,13.66-5.93l8.6-1.19c4-1.22,6-4,8.61-6.53,1.29-1.22,3-1.9,4.45-3,2.36-1.74,4.29-4.35,6.83-5.94l7.72-3.26c2.84-1.76,4.87-4.8,8.31-5.94,3.92-1.29,8.78.92,12.46-.59,2.85-1.17,4.51-3.71,6.83-5.34,2.54-1.79,5.56-2.48,8.31-4.16,2-1.21,4.08-2.74,6.23-3.86a12.72,12.72,0,0,1,9.51-1.19c2.9.93,7.94,3.63,11.57,1.19,5.34-3.57,1.9-10.25,3.86-16.92,1.29-4.43,5.91-5.21,7.12-10.09.61-2.44-.49-5.34-.89-7.12-.44-2,.9-14,1.48-15.73,1-3,3.11-4.85,4.75-7.12s2.79-4.8,4.46-7.13,3.87-4.11,5.34-6.53l2.07-5.64c1-4-.71-8.51.89-11.57s5.25-5.63,8-7.72c2.43-1.83,4.34-4.35,6.83-6.23,3.24-2.46,4.75-7,8-9.5,1.49-1.13,3.33-2.09,4.45-3.56a11.77,11.77,0,0,1,1.49-2.08c2.32-1.89,5-3.25,7.42-5,1.63-1.22,2.84-3.24,4.45-4.46s3-1.86,4.45-3c1.79-1.32,3.2-3.48,5-4.75,1.36-.92,2.75-1.19,4.16-2.07,2-1.21,3.54-3.15,5.35-4.45,2.55-1.85,5.51-2.89,8-4.75s4.12-5.3,6.83-7.12c2.93-2,7-2.26,10.09-4.16,2.23-1.39,3.82-3.84,5.93-5.34,2.44-1.74,5.61-2.41,8-4.16,1.76-1.27,2.9-3.55,4.76-4.75,2.85-1.84,8-1,10.68-3,1.36-1,2-3.08,3-4.45l6.23-5.64c2.42-3.22,5.54-5.43,7.72-8.31,1-1.35,1.93-3.14,3.26-4.15,7.13-5.42,13-11.84,19.3-18.11a27.93,27.93,0,0,1,3.26-2.37c1.94-1.47,3.24-3.73,4.75-5.64,1.86-2.36,5.6-3.24,7.42-5.64,3.72-4.91,8.31-8.9,12.76-13.06,2-1.85,3.43-4.32,5.35-6.24,3.26-3.24,6.92-5.51,10.68-8.31,3.36-2.5,5.39-6.8,8.31-9.79,2-2,5.15-3.44,6.83-5.64,5.6-7.36,12.23-13.71,17.8-21.07,2.6-3.43,7.7-6.4,10.39-10.09a52.13,52.13,0,0,0,5.64-9.8c1-2.43,1.27-5.05,2.67-7.12,1.7-2.49,5.23-3.66,6.83-6.24s1.11-6.8,2.67-9.49c1.4-2.42,3.8-4,5.34-6.24l3.57-6.82c1.41-2,3.88-3.42,5-5.64,1.66-3.16,1.28-7.66,3.27-10.39,1.35-1.86,4.08-2.77,5.34-4.75,1.74-2.75.92-7.8,2.67-10.68l9.8-11.58a88.63,88.63,0,0,0,7.12-13.36c.89-2.15.89-4.18,1.78-6.23,1.2-2.75,3.56-4.73,5-7.12,1.12-1.78,1.36-3.75,2.38-5.64,1.9-3.51,6.29-5.1,7.72-8.9q.73-6.09,1.48-12.17c1.61-5,5.64-7.86,7.42-12.77,1.18-3.25-.27-7.65.6-11.57.93-4.23,5-13.73,3.85-18.4s-3-8.83-4.15-13.66c-1.43-6.09,1.81-13,.3-18.1-1.43-4.74-6.48-6.08-8-10.69-1.15-3.42-.42-7.64-1.48-11.28-1-3.38-3.43-5.11-5.05-7.71l-3.56-8.61c-1.37-1.93-3.71-3.07-5.34-4.75a96.43,96.43,0,0,0-10.69-10.09l-1.78-2.08c-2.71-1.87-6.64-2.1-9.5-3.86-3.79-2.34-7.36-5.59-11-8.31-3.34-2.5-4.67-6.65-7.12-10.09-1.45-2-3.7-3.45-4.75-5.94-.69-2.47-1.39-4.94-2.08-7.42-1.1-2.6-6.21-8.55-8.61-9.79l-10.08-2.37c-3.13-1.58-5.3-4.76-8.62-6.24-3.54-1.58-8.66-1.29-11.87-3.26-2.33-1.44-4.09-4.09-6.53-5.35-3.36-1.72-8.29-.81-11.28-2.67-2.19-1.36-3.74-3.65-5.64-5.34-2.29-2-4.94-3.77-7.12-5.94-1.7-1.68-3.36-4.32-5.64-5.34a13,13,0,0,0-7.12-.59c-3.88.86-19,.08-21.67-.89-4.53-1.65-6.69-5.65-11.57-7.13-4.33-1.3-10.12-.15-14-1.78s-5.53-5.24-9.79-6.52c-6.13-1.86-14.46,0-20.48-1.49-3.91-1-8.4-1.59-11.87-3.26-3.21-1.56-6.13-3.52-10.09-4.46-2.18-.51-6,0-7.72.3l-3-.3H2197c-4.63-1-9-2-13.35-3l-11.28.3c-6.13-1.46-11-4.57-17.22-6.23-6.42-1.71-17.09-.59-24.63-.59H2102c-4.62,0-10.44-.58-14.54.29l-3.56-.29-18.4.29c-4.57,1.17-5.4,6.58-10.09,7.12-3.94,2.24-7.85-6.38-13.65-4.74-4.11,1.16-5.45,5.91-9.8,7.12l-6.83-.3c-6.69-.14-19.52-1.1-24.63.6-5.27,1.74-6.84,6.88-12.77,8.31l-28.78-.3c-5.77,1.38-7.84,6-13.06,7.72-3.42,1.12-8.52.59-12.77.59H1929c-3.7,1.23-4.35,6.61-8,8-5.06,1.93-11.74-1.27-16.62.59-5.06,1.93-7.29,7.28-13.06,8.9-5,1.4-10.48-1.68-14.84.3-3.17,1.43-4.46,5.89-7.42,7.72s-7.55,1-11,2.37c-4.41,1.77-7.2,5.42-11.28,7.12-6.38,2.67-17.77-1.47-23.74,2.08-2.22,1.32-3.35,3.86-5.34,5.35s-4.45,2.6-6.53,4.15c-1.52,1.13-2.55,3.1-4.16,4.15-3.11,2-8.1,1.88-11.28,3.86-1.78,1.11-2.82,3.23-4.45,4.46-2.13,1.6-4.62,2.57-6.83,4.15-2.06,1.48-3.67,3.71-5.93,5-4.06,2.38-9.75,2.46-14.25,4.45-4.12,1.82-6.58,5.59-11.28,7.12-3.25,1.06-8.11-.1-11.28,1.19-3.42,1.4-4.89,4.95-8,6.53-2.53,1.28-6.08.86-8.31,2.37-2.48,1.68-3.44,5.08-6.53,6.24-4.12,1.54-8.64-.85-12.47-.6-1.39,2.11-2.9,7.24-4.75,8.61-3.05,2.27-8.22,2.07-11.57,4.16-2.52,1.57-4.08,4.52-7.13,5.63-2.76,1-6.35.06-8.9,1.19-2.85,1.27-4.65,4.75-7.12,6.53-2.71,1.95-5.68,2.94-8.61,4.75-2.11,1.31-3.85,3.45-5.94,4.75-2.4,1.49-6,1.16-8.6,2.67-3,1.74-4.43,5.52-7.72,6.83-2.76,1.1-6.1.57-8.31,2.07-1.56,1.06-2.57,3.08-3.86,4.46s-3.4,2.33-5.05,3.56c-2.07,1.54-3.5,4.11-5.64,5.64-3.63,2.59-10,2.44-13.65,5l-10.09,9.8c-1,1.32-2,3.17-3.27,4.15-2.57,2-5.57,3.22-8.31,5-1.63,1.09-3.08,2.82-4.74,3.86-2.15,1.33-4.74,1.6-6.83,3s-3.77,3.92-5.94,5.34-5.3,1.42-8.31,2.08h-3.86c-4.11,1.16-4.26,5.82-7.42,7.72-2.68,1.6-7.93.13-10.39,1.78-2.05,1.37-3.08,4.17-5,5.63s-4,2.44-5.94,3.86c-2.78,2-5.3,5.41-8.61,6.83s-7.77.94-10.68,2.67c-3.74,2.23-6.18,5.74-11,7.12-5.11,1.48-15.19,1.81-20.78.6-4.38-1-8.74.22-12.46-1.19-2.27-.86-4.07-2.91-5.94-4.16-3.08-2.06-6.84-3.13-9.79-5.34-1.15-.86-1.68-2.52-2.68-3.56-.44-6.56,2.86-7.92,6.24-11.28,5-5,10.11-9.87,15.14-14.84a182.37,182.37,0,0,1,23.74-19.29c1.71-1.21,3.23-3,5.05-4.16,2.36-1.45,6.07-1.37,8.3-3,1.58-1.13,2.41-2.87,3.57-4.46,1.39-1.9,4-2.76,5.93-4.15,1.67-1.19,2.83-3.28,4.46-4.45,3.21-2.33,8.44-2.31,11.87-4.46,1.17-.73,2-2.06,3-3,2.38-2.11,4.89-4,7.13-6.23,1.48-1.58,3-3.16,4.45-4.75,3.52-2.61,8.34-3.54,12.17-5.93,1.45-.91,2.52-2.57,3.86-3.56,1.68-1.25,3.55-2.14,5-3.57l4.45-4.75c2.29-1.72,5-2.73,7.42-4.45,1.51-1.1,2.65-3.06,4.15-4.15,2.87-2.09,7.57-1.49,11-3.27,3.2-1.66,3.74-6.43,7.41-7.71,2.68-.94,6.42.62,8.91-.9,2.32-1.41,3.25-4.35,5.34-5.93,1.62-1.22,3.29-1.81,5-3,2.72-1.79,5.32-4.43,8-6.23,3.57-2.39,8-2.45,12.47-4.16,2.86-1.1,5.16-3.78,7.71-5.34,1.8-1.1,4.15-1.21,5.94-2.37,2.37-1.54,3.42-4.63,5.64-6.24s5.33-1.8,7.72-3.26,4.08-4.07,6.52-5.34c4.29-2.23,13-.29,16.92-3,2.39-1.62,3.38-5,5.94-6.53,2.77-1.64,7.85-.37,10.39-2.08,2.21-1.49,3.34-4.49,5.64-5.94,3.82-2.4,9.39-1.94,14-3.85,3.58-1.5,5.4-5.36,8.9-6.83l8.61-1.48c3.41-1.43,5.54-4.81,8.9-6.24s8.1-1.19,11.58-2.67,5.36-4.89,8.9-6.23c4-1.51,9.91-.4,13.66-2.08,2.57-1.15,3.63-4.2,5.93-5.64,2.9-1.81,7.9-.93,11.28-2.37s5.86-5.12,9.5-6.53c4.79-1.86,12.42-.68,17.21-2.67,5.5-2.29,8.63-8,14.55-9.8,4.14-1.28,8.38,1.15,11.87-.3s6.06-4.63,9.2-6.53l10.09-3.56c2.26-1.4,3.94-3.94,6.53-5,7.88-3.37,20,1.27,28.49-1.48,4.32-1.4,6.08-5.2,9.8-6.83,4.09-1.8,10.22-.38,14.84-1.78,4.87-1.48,7-5.58,11.28-7.42,5-2.16,13.84-.16,19.59-1.78,6.41-1.82,10.88-6.25,17.51-8,4.58-1.22,15.67-1.7,20.77-.59l16.33-.3c3.62,0,7.31,1.62,11,.59,5.54-1.54,6.5-7.21,13.65-8.9l13.66-.3c3.9-.84,8.35-.26,12.46-.29,3.84,0,8.39-.53,12.17.29s7.13-.94,11,0c5,1.23,8.08,4.39,12.76,5.64,5.73,1.54,9-3,11.87-4.75a20.22,20.22,0,0,1,5.34-1.78c5.1-1.19,9.29,1.52,12.76,2.38s7.18-.88,9.8-1.49l11.57-.59c3.81-1,5.8-3.49,8.61-5.34,1-.64,2.37-.78,3.27-1.49ZM679.74,259.46c-.32.22-.29.18-.9.3-.67.85-1.8,1.42-2.37,2.37-3.22,5.41-1.31,15,1.78,19.29,1.56,2.16,4.82,3.05,5.94,5.64,1.21,2.81-.1,7,1.18,9.5,1.06,2.05,3.53,3.1,5.35,4.45,1.12.83,1.76,2.2,2.67,3.27l1.19.59a37.47,37.47,0,0,1,5.64,6.23,24.8,24.8,0,0,1,3.26,6.53c.66,2.31.33,4.51,1.19,6.53,1.27,3,4,4.79,5.64,7.42,2.07,3.39,1.45,8.81,3,12.77s5.26,6.38,6.82,10.09c2,4.62.32,12.3,2.38,16.92,1.63,3.64,5.7,4.71,6.82,9.19s-1.35,9,.3,12.77c.66,1.52,2.18,2.17,3.27,3.26,8.88.09,12,4.54,14.54,11,.62,1.56,1.79,4.17,1.19,6.83-.88,3.83-3.27,10.82-.89,14.84,1.63,2.77,4.69,4.54,6.52,7.13,2,2.88,2.07,6.84,3.57,10.38,2.35,5.58,6.46,8.82,8,15.44v26.71c-.46,2.17-.72,6.71,0,8.9,1.13,3.45,4,4.87,5.94,7.42a53.57,53.57,0,0,1,5.64,10.39c2.05,4.91-2.47,7.53-1.49,11.58.64,2.64,2.88,4,4.16,5.94a24.23,24.23,0,0,1,2.67,7.12c.91,3.62.74,10.63,0,14.24.1,3.27.2,6.53.29,9.8v5.34c-.42,2-1.49,5.16-.89,7.72.27,1.14.9,2.15,1.19,3.26,1,.61,2.08,1.7,3.27,2.08H789c3.64.84,7.75.56,10.69,2.08,7.74,4,11,11.75,20.18,14.54,1.82.55,5,1.88,7.72,1.19,5.49-1.42,5.36-7.1,12.76-7.12,1.42,1.24,3,2,3.86,3.86,1.89,4.24,1.47,9.71,5.64,11.57,3.6,1.61,7.57-.21,11.57.3,3.26.41,8.36,1.73,11.58.59,4.37-1.54,4.79-6.77,6.82-10.68,1.86-3.58,5-6.22,6.24-10.39,1-3.26.29-8.37.29-12.17,0-7.31,1.1-18.78-.29-25.23a20.35,20.35,0,0,1,.29-6.83c.65-2.94.26-13.48-.29-16v-6.83c0-3.67-1.14-8.47-.3-12.47a29.73,29.73,0,0,0,0-12.46c-1.33-4.89-5.53-7.06-6.83-11.58-1.41-4.95,3.29-8.71,2.67-11.87-.32-1.66-1.51-3.11-2.07-4.45-.82-1.94-1-4.37-1.49-6.53-1.22-5.51,1-12.15-.59-16.92s-5.6-7.42-7.12-12.47c-2.44-8.06,1.16-20.34-2.08-27.6-1.6-3.58-5.53-5.64-7.12-9.5-1.27-3.05-.1-7.7-1.19-11s-4.25-4.59-5.94-7.12c-1.84-2.77-1.71-7.08-3.56-9.8-3.91-5.73-11.6-9.44-15.43-15.13-2.22-3.29-.88-10.42-3.27-13.66-2.23-3-8.32-2.69-11-5.34s-2.64-7.47-4.75-10.39c-2.56-3.53-8.31-4.48-11-8a105.5,105.5,0,0,0-8.31-10.09l-7.41-7.2c-.53-.7-.66-1.37-1.19-2.08l-5.94-5.63c-1.08-1.49-1.8-3.68-3.26-4.75-2.74-2-8.92-.56-11.87-2.38-1.87-1.14-2.91-3.27-4.45-4.75-1.74-1.65-4-2.7-5.94-4.15-2.1-1.57-3.68-4.25-6.24-5.34-2.89-1.24-6.82-.64-10.38-.6-4.65.06-7.91-.88-12.47-.89l-10.68.3c-5.48-1.22-9-3.59-14.25-4.75s-8.21,3.53-13.36,2.08c-3.88-1.1-4.38-5.36-9.49-5.64Zm-81.63,937.61c-3.34,3.14-8.9,5.2-8.9,11.58.75.92.78,1.63,2.08,2.08,1.76,1.42,6.21.18,7.71-.6,5.8-3,6.64-8.58,1.79-13.06Zm-24.63,70.64c-3.63,3.52-8,6.28-10.69,10.69-1.9,3.08-1.51,8.26-3.56,11.28-1.5,2.22-4.45,3.63-5.93,5.93-1.68,2.62-1,7.14-2.67,9.8-2,3.32-5.49,5.56-7.72,8.6a118.32,118.32,0,0,0-6.83,9.8c-2,3.36-1.37,8.56-3.56,11.57-.89,1.22-2.65,2-3.86,3-1.54,1.19-2.76,3.36-4.16,4.75-5.29,5.29-10.72,9.18-9.49,20.18l1.48,1.19c.75.6,1.85.62,3.27.59,1-.93,2.52-1.18,3.56-2.07,3.06-2.62,5.38-6.14,8.9-8.31,2.55-1.57,5.51-2,7.12-4.46,3-4.58.22-12.77,2.38-18.1,2.73-6.7,9.88-11.24,13.95-16.92,2.41-3.36,2.6-8.91,5.05-12.17,1.79-2.38,4.76-3.68,6.23-6.53.86-1.67.75-3.54,1.48-5.34a47.62,47.62,0,0,1,3.56-6.83c3.17-5.08,7.88-6.28,5.94-15.13a6.14,6.14,0,0,0-4.45-1.49ZM618,1338.35c-.26.19-.93.4-1.19.6-5.23,1.81-4.54,9.84-8.61,12.76-2.86,2-6.94,2.55-9.79,4.45-2.53,1.69-4.15,4.75-6.53,6.53-2.72,2-6,3.14-8.9,5-1.75,1.15-3.44,2.83-5.64,3.56-2.61.86-6.81.85-9.5,1.19l-2.08,2.37c.1,7.24,7.76,4.47,9.5,9.5,2.25,3-1.53,6.57-3,8-1.83,1.83-3.92,4.06-6.53,5-3.52,1.33-7.48,1.15-10.39,3-2.73,1.71-4.44,5-7.42,6.54s-8.34-.79-11,1.18c-.49.53-.52.75-.59,1.78a39.46,39.46,0,0,1,4.15,9.2c1,4.4-2.23,7.48-.89,11.58.85,2.56,3.86,3.93,5.64,5.64,2.12-.89,5.06-3.83,8.31-3,5.64,1.49,5.39,6.88,13.66,5a19.54,19.54,0,0,1,2.37-3c.5-6.89-3-8.61-5.34-13.06-.7-1.33-2.09-5.14-.89-7.13a2.14,2.14,0,0,1,1.48-1.78c2.61-2.29,7.65.58,11.28-.59,5.63-1.81,7.22-8.11,10.39-12.47,2-2.72,5.78-3,5.93-7.71-2.06-2.08-5-4.62-5-8.61.71-.91.81-2.32,1.48-3.27l3.86-3.55c1.23-1.66,2-3.4,3.27-5,2.12-2.86,5.87-4.55,8-7.42,1.94-2.61,3.64-5.52,5.34-8.31.55-.9.56-1.88,1.19-2.67,2-2.5,6.42-3,9.2-4.75,1.3-.82,1.93-2.2,3-3.27a14.55,14.55,0,0,0-.6-5.64c-1.37-.92-1.74-1.73-4.15-1.78Zm-61.44,8.91c-.35.24-.5.22-1.19.29-.61.92-1,.87-1.18,2.38.92.61.86,1,2.37,1.18.49.25.77.07,1.78,0,.61-.91,1-.86,1.19-2.37-.24-.3-.11-.08-.3-.59l-2.67-.89Zm-15.73,24.63c-1.85,1.17-8.67,1.19-11,1.78-2.89,4.25-1.83,13.83,4.75,13.66,2-1.54,5-1.87,7.12-3.27,2.41-1.6,3.71-3.87,5.64-5.94.13-2.86-.21-4.8-2.08-5.63-.92-.73-2.75-.64-4.45-.6Zm-35.32,8.61c-1.48,1-3.4,1.25-4.75,2.37-2.1,1.76-3.08,4.9-5.34,6.53-4.76,3.46-8.21,4.92-6.23,13.36.78.58,1,1.12,2.07,1.48,1.35,1.12,3.43.29,4.75-.29a18,18,0,0,0,1.78-2.38c1.2-2.73,1.42-6.55,3.56-8.31,3.28-2.68,12.41-1.36,12.47-6.82C511.19,1383.55,511.23,1380.44,505.5,1380.5Zm547.31,3.56c-.25.19-.93.4-1.18.6-3.82,1.43-3,7.72-5.05,11-1.13,1.83-2.86,3.65-3.86,5.63-1.56,3.11-2.1,6.15-3.86,8.91-5.14,8.09-12,12.64-8.61,27.9a16,16,0,0,1,2.08,1.48,6.05,6.05,0,0,0,2.08-.59c2.41-.81,3.41-3.14,4.75-5a43.34,43.34,0,0,0,6.53-12.17c1.18-3.65.62-8.17,2.08-11.57,1.77-4.15,6.65-5.65,8.31-10.09,1.28-3.43,1.16-12-.59-14.55a5.92,5.92,0,0,0-2.68-1.48ZM529,1388.81c-2.82,1.63-10.38-.52-11.87,2.38-.74,1.26.78,3.49,1.48,4.45,1.22,1.68,7.49,8.49,9.2,9.2,1.43.59,3.88.92,5.05,0,2.24-2.45-.23-12.15-.89-14.84a16.16,16.16,0,0,0-3-1.19Zm-21.08,17.81c-1.57,1-3.45.72-4.15,2.67-.24.35-.23.5-.3,1.19.66.68,1,1.81,1.78,2.37,1.62,1.18,3.64,1.6,5.35,2.67,2,1.24,3.81,3,5.93,4.16,1.46.76,3.83,1.63,5.34.59,1.28-.44,1.28-1.23,2.08-2.08.14-9.61-6.61-11.72-16-11.57Zm499.24,1.19c-.47.53-.59.38-.9,1.18-.49.53-.51.75-.59,1.78.71.76.64,1.37,1.78,1.78a3.13,3.13,0,0,0,1.78.3c1.53-2.06,2.55-5.25-2.07-5Zm-523.87,4.45c-3.85,3-9.43,3.9-13.36,6.82-2.86,2.14-4.22,6.18-6.23,9.2-2.29,3.45-5.45,6-8.31,8.91-1.09,1.19-2.18,2.37-3.26,3.56-4.07,3-5,4.31-8,8.31-1.7,2.26-3.53,2.28-3.56,6.53,2.28,3.47,2,12.25,7.42,12.17.9-.88,2.37-1.19,3.27-2.08,1.67-1.65,2.72-4,4.15-5.93,1.1-1.45,3.1-2.31,4.15-3.86,3.06-4.49,2.94-10.53,10.39-10.69,2.77,2.67,6.32,4.25,9.5,6.53,2.09,1.5,3.11,3.56,6.53,3.86,3.63-2.81,15.16-8.7,11.87-16.62-.62-1.51-1.91-2.2-3-3.26-6.08.06-6.29,3.38-9.8,5.64-1.34.86-3.84.8-5.64,1.18-2.73.59-7,.28-7.72-1.48-1.49-2-.08-5.55.6-7.13a19.42,19.42,0,0,1,6.53-8.3c2.86-1.91,7-2.19,8.31-5.64.91-1.07,1.23-3.82.3-5-.4-1.48-1.2-1.76-2.08-2.67Zm540.19,39.47c-.65,1-1.76,1.69-2.38,2.67-1.3,2.09-1.84,4.34-3.26,6.23-1.14,1.52-4.86,3.51-6.53,5-.06,4.79,2.43,10.79,1.19,16.32-.53,2.32-.26,5.13-.89,7.73-.83,3.35-2.16,6.16-1.19,10.09a14.68,14.68,0,0,1,2.37,1.78c8.15.55,7.42-4.9,7.42-13.06V1484c1.18-4.81,4.81-7.46,6.53-11.58,1.34-3.2.62-6.33,1.49-10.39.28-1.35.78-4.73.29-6.53s-1.72-2.61-2.67-3.86Zm-549.1,16.62c-1,.81-2.48,1-3.56,1.78-2.51,1.81-4.36,4.71-6.82,6.53s-5.31,2.81-5.35,7.13c6.48,4.88,9.15-.07,13.36-3.27,3.17-2.4,7.44-5.18,6.23-11a7.36,7.36,0,0,1-1.48-1.19Zm510.22,1.78a4.36,4.36,0,0,1-2.08.6,21.57,21.57,0,0,1-3,3.26v2.08h.59c3,2.11,6.91-2.15,6.83-5a4.3,4.3,0,0,0-1.19-.6c-.35-.24-.5-.23-1.18-.3Zm-49,2.08c-3.18,2.43-8.53,4.44-7.42,10.09a7.38,7.38,0,0,0,2.38.3c1.68-1.38,3.83-2,5.64-3.26,1.35-.95,2.14-2.39,3.26-3.57a11.35,11.35,0,0,0-.29-2.66,6.67,6.67,0,0,0-3.57-.9Zm-406.92,8c-1.26,1.3-2.37,1.79-2.67,4.15.51.51.44.83,1.19,1.19a4,4,0,0,0,2.07.3c1.6-1.25,2.7-1.16,2.68-4.16-.52-.51-.45-.82-1.19-1.19A4,4,0,0,0,528.67,1480.21Zm444.62,0c-1.65,1.31-3.34,1.69-4.16,3.86-.93,2.47-.25,5.64-1.48,7.71-1.77,3-6,3.72-5,8.61l2.08,1.48c2,.77,4.4,0,6.53,0,2.87.07,5.88.52,8.9.3.78-.93,3.1-2.46,1.78-4.45-1-3.13-4.8-3.84-6.23-6.53s0-7.42-.59-10.69l-1.78-.29Zm-463.62,17.51c-1.36,1.42-2.36,2.15-2.67,4.75a4.48,4.48,0,0,0,1.49.29c1.62-1.09,3.45-.91,4.15-3,.24-.36.23-.5.3-1.19a6.06,6.06,0,0,1-1.19-.89Zm496.86,19c-3.16,3-7.56,5.68-9.2,10.09-1,2.79.23,6.42-.59,9.8-.53,2.17-1.52,3.85-.6,6.23.93.6,2.48,1.94,4.16.89,2.31-1.44,1.24-5,2.37-7.71,1.72-4.09,6-6.82,7.72-11,1.12-2.72.65-7.1-1.78-8a4,4,0,0,0-2.08-.3Zm-51,15.73c-1.22,1-2.4,1-3,2.68a3.93,3.93,0,0,0-.59,2.67c.77,1,.84,2.09,2.08,2.67,2.6,2.44,5.12-.91,6.53-2.38,0-1.7.05-1.85,0-3.56-1.64-1.15-2-2.09-5-2.08Zm-51.64,7.72c-2.3,1.46-7,.58-7.43,3.86,2.45,1.67,12.82,8,15.14,1.48C915,1541.34,907.75,1540,903.89,1540.17Zm-482.32.59c-2.14,1.26-4.9.24-5,3.57,2.71,1.68,3.9,2.1,7.72,1.18,1-1.42,1.76-1.55,1.77-4.15a9.66,9.66,0,0,0-4.45-.6ZM990,1561.54c-.32.23-.28.18-.89.3-.84,1.06-1.6,1.11-1.78,3-.61.93,0,2,.3,3a4.78,4.78,0,0,0,3.56,1.18c1.39-1.33,4.61-5.48.59-6.82a3.1,3.1,0,0,0-1.78-.6Zm-622.41,9.8c-6.37,4.56-13.67,7.08-10.68,18.4a9.83,9.83,0,0,0,2.67.59c1-.75,2.5-.77,3.56-1.49,3.47-2.3,9.79-8.53,9.8-14.24-.78-1-.75-2.15-2.08-2.67-.71-.65-1.82-.64-3.27-.59Zm8.91,24.93c-4,3-9,3-8.91,10.09,6.42,7,16.53,1.43,13.95-8.91a7.31,7.31,0,0,1-1.48-1.18Zm-51,32.35c-2.72,2.89-9.72,8.88-10.09,13.36.6.76.67,1.5,1.48,2.07,1.48,1.21,3.81.33,5.05-.3a13.74,13.74,0,0,0,7.12-8.6c.95-3.37.18-6.61-3.56-6.53Zm601.33,5.94a5.38,5.38,0,0,1-.89,1.18,15,15,0,0,0,.3,3.27,3.45,3.45,0,0,0,2.07.59c.31-.24.09-.1.6-.3.76-1.63.7-2.31.29-4.15-.7-.25-.48-.12-.89-.59ZM848.32,1748c-1,.93-2.25,1.48-3,2.67-.94,1.58-1.05,3.32-2.07,4.75-1.54,2.13-5,3-5.35,6.23-.52.92.29,2.52.6,3.56,1.54,1,2.36,1.76,5,1.78l2.38-.89c1.77-1.08,8.31-6.65,9.2-8.31,2.82-5.28-2-9.82-6.83-9.79Zm1614.34,251c-4.79,3.64-7,3.65-5,11.58,1.68,1.14,2.19,1.82,5.34,1.78,1.5-1,3.53-1.12,5.05-2.08,1.3-.81,1.93-2.18,3-3.26.14-3.78-.87-6.55-3.56-7.42-1-.76-3-.64-4.75-.6Zm-100,17.52c5.08-.14,6.54.91,8.9,3.26v2.08c-.9,1-1.49,2.25-2.67,3-2.87,1.75-8.51,1.11-9.49-1.78-2-2.39.88-5,2.07-6.24.7,0,.85,0,1.19-.29Zm51.35,24.63a10.51,10.51,0,0,1,3.56.59l1.48,2.08c0,6.08-4.43,10.64-2.37,16,4.31,2.47,9.67,0,13.36-1.48,2.11-.86,4.28-.86,5,1.18,1.24,2-.74,4.56-1.48,5.64-2.21,3.26-10.6,8.81-16.92,6.53-2.92-1.05-3.37-5.05-6.23-6.23-2.37-1-5.33.16-7.13.59a7.5,7.5,0,0,0-.59,2.68c.74,1.07.45,2.75.89,4.15,1,3.17,6,12.06-.3,12.76-1.8,1.07-4-.79-5-1.48-2.35-1.54-6.47-3.53-9.8-1.49-1.39.86-2.41,2.42-3.56,3.57-3.21,3.21-6.25,6.62-9.5,9.79a43.12,43.12,0,0,1-4.45,3.27c-2.47,1.85-3.79,5.27-6.23,7.12-5.4,4.11-10.27,9.51-15.14,14.25-1.48,1.44-11.18,5.62-13.06,1.78v-4.75c.88-1.24.78-3,1.48-4.45,1.2-2.42,3.29-5.81,5.35-7.42,2.67-2.1,5.7-3.41,8.61-5.35a22.87,22.87,0,0,0,5-5.34l7.12-6.82c2.08-2.85,4.16-5.27,6.24-8l3-2.67c1.27-1.69,2.52-4,4.15-5.34,4.55-3.6,10.94-3.24,16.62-5.64,2-.83,4.3-1.28,5-3.27,1.33-1.8,1.25-9.27,2.37-11.87a20.63,20.63,0,0,1,8.61-8.91c1.31-.68,2.77-.64,3.86-1.48Zm-105.07,50.46h2.38c1.26,1.63,2.44,2.8,3.26,5,1.72,4.71,2,12.16-.59,16-1.32,2-4,2.76-5.94,4.16-2.37,1.76-4.8,4.76-7.12,6.82-4.09,3.64-7.14,8.3-11,12.17-2,2.08-5.75,4-7.41,6.24-2.09,2.73-3.3,6.15-5.35,8.9-1.93,2.6-4.81,4.46-6.82,7.12l-5.64,5.35-3.86,4.15c-2,1.47-4.42,2.14-6.53,3.56a20.71,20.71,0,0,0-4.45,4.75c-1.27,1.67-3.49,2.78-4.76,4.46-2.07,2.75-4.29,5.16-6.52,7.71-1,1.19-1.55,2.77-2.67,3.86-2.46,2.39-6,4.08-8,6.83-2.54,3.37-4.57,8.15-10.09,5.93a14.56,14.56,0,0,1-2.08-4.15c-.54-2.23.17-5.38.6-6.83,1.73-5.84,5.22-8.07,10.68-10.09,2.29-.84,4.52-1.26,6.24-2.67,2-1.64,1.56-4.79,2.67-7.42,2.44-5.82,9.51-4.6,13-8.61l3.57-6.53c1.79-2.47,4.55-4.08,6.23-6.82,2.26-3.71,3.09-9.11,6.53-11.58,2.52-1.81,6.91-1.5,9.5-3.27,3-2,1.61-6.24,2.67-10.39a19.94,19.94,0,0,1,2.67-5.93c3.44-4.93,10-7.39,14.84-11a56.08,56.08,0,0,0,8.91-9.5c1.89-3,2.73-5.84,5-8.31Zm19.59,35.91c2.15-.09,3.6,0,4.45,1.19,1.43,1.83.54,5.9-.59,7.72-1.93,3.08-5.34,4.44-8.31,6.53-2,1.39-3.7,3.59-5.94,4.75s-6.12,1.18-7.71-.89c-2.22-2.91,1.1-6.28,2.37-7.72,2.69-3.07,5.49-7.25,9.2-9.2,2-1.05,4.66-1.1,6.53-2.38Zm-43.93,41.85c1.3.3,1.67.54,1.78,2.08a4.24,4.24,0,0,1-3,1.19,5.13,5.13,0,0,1-.89-1.49h.29c.41-1.14,1-1.06,1.78-1.78Z" transform="translate(0.01 0)"/><path class="cls-1" d="M2998.69,3064H0V2488.28h2998.7ZM272.91,2639l37.88-6.59v-3.67q0-20.8-8.71-28.77t-32.81-8H153.73q-24.42,0-33,8.11t-8.56,30.15v85.25q0,22.18,8.56,30.22t33,8H269.27q24.41,0,33-8t8.55-30.22V2659.8H209.2v27.55h63.71v36H151.19V2620.93H272.91Zm104.77,83.4q0,18.22,7.29,24.8t28.37,6.58H519.53q20.93,0,28.29-6.58t7.37-24.8v-69.94q0-18-7.21-24.64t-28.45-6.58H413.34q-21.07,0-28.37,6.58t-7.29,24.64Zm33.44-76.82H521.75v82.79H411.12Zm343.3,108.2V2729H646.8V2621.23H613v132.54Zm121.73,0q45.65,0,68.23-16.69T967,2687q0-31.68-21.31-48.74t-61.1-17.07H792.14v132.54ZM825.9,2645h59q24.26,0,36,10t11.73,30.53q0,23.56-14.11,33.52T869,2729H825.9Zm340.45,108.82V2729H1051.12v-32.59h66.1V2673.6h-66.1v-28.92h113.49v-23.42H1017.37V2753.8Zm78.77,0v-89.38l116.18,89.38h23.14V2621.23h-30.27v88l-116.5-88h-23v132.54Zm369.77,0v-99.94c0-2.55-.08-5.21-.24-8s-.4-5.85-.71-9.18a57.71,57.71,0,0,0,4,7.88,101.87,101.87,0,0,0,5.94,8.65l63.08,81.11h7.77l62.92-80.81a76,76,0,0,0,4.28-6.65c1.59-2.71,3.43-6.15,5.55-10.33-.42,3.67-.77,7-1,9.94s-.4,5.41-.4,7.35v99.94h36.14V2592H1771l-77.19,97.79L1614.89,2592h-31.54v161.77Zm253.75-31.38q0,18.22,7.29,24.8t28.37,6.58h106.19q20.92,0,28.29-6.58t7.37-24.8V2652.5q0-18-7.21-24.64t-28.45-6.58H1904.3q-21.08,0-28.37,6.58t-7.29,24.64Zm33.44-76.82h110.63v82.79H1902.08Zm232.36,108.2v-89.38l116.17,89.38h23.14V2621.23h-30.27v88l-116.49-88h-23v132.54Zm234.41,0V2694l86.22,59.84H2508l-105.56-71.17,94.94-61.37h-48.5l-80,53.57v-53.57h-33.78v132.54Zm316.51,0V2729H2570.14v-32.59h66.09V2673.6h-66.09v-28.92h113.48v-23.42H2536.38V2753.8Zm133.61,0v-60.15l74.65-72.39h-39.3l-49.61,49.44-49-49.44h-45.18l75,73v59.54ZM463.39,2903.72l17-2.71v-8.22q0-11.94-4.63-16.3t-17.5-4.37h-53q-12.78,0-17.35,4.27t-4.57,16.4v45.83q0,12.24,4.52,16.4t17.4,4.16h53q12.89,0,17.5-4.31t4.63-16.25v-10.23l-17-3.11v20.77H400.44v-61h62.95Zm70.32,55.46v-38.81h71.88v38.81h17v-86.86h-17v34.91H533.71v-34.91h-17v86.86Zm147.09-86.86H663.87v86.86H680.8Zm60.3,23.12a79,79,0,0,0,6.07,6.07l67.52,57.67h11.64v-87.06H810.64v52.56c0,2.88.12,5.65.36,8.33s.61,5.31,1.09,7.92a64.26,64.26,0,0,0-5.24-6.62,55.86,55.86,0,0,0-5.56-5.32l-66.17-56.87h-13v87.06H737.8v-54.06c0-2.61-.1-5.21-.31-7.82s-.52-5.18-.93-7.72a49.32,49.32,0,0,0,4.54,5.86Zm218.6,63.74v-12.73H885.12v-26.08h44.46v-12.94H885.12v-22.37h73.75v-12.94H868.08v87.06Zm111.56-62.68,15.48-3.21v-2.11q0-10.63-4.78-14.85t-17.35-4.21h-50.17q-12.78,0-17.35,4.37t-4.57,16.3V2901q0,12,4.57,16.3t17.35,4.26h58.07V2946h-68V2933.1l-15.58,3.1v2.41q0,12,4.62,16.3t17.5,4.26h54.85q12.87,0,17.4-4.26t4.52-16.3v-10.43q0-12-4.63-16.3t-17.29-4.26H1008v-22.57h63.26Zm147.6,62.68v-12.73h-74.58v-26.08h44.46v-12.94h-44.46v-22.37H1218v-12.94h-90.78v87.06Zm128.6,0v-34.1h24.62l35.94,34.1h22.75l-39.79-34.1h12q10.07,0,14.49-3.91t4.41-12.74V2889q0-8.92-4.41-12.88t-14.49-4h-72.5v87.06Zm55.57-72.31c1.39,1.33,2.09,3.61,2.08,6.82v10.43q0,5.22-2,7c-1.32,1.2-3.88,1.81-7.69,1.81h-48v-28.09h48c3.71,0,6.24.69,7.57,2Zm149.37,72.31v-12.73h-74.58v-26.08h44.46v-12.94h-44.46v-22.37h73.75v-12.94h-90.78v87.06ZM1664,2896.5l15.48-3.21v-2.11q0-10.63-4.78-14.85t-17.35-4.21h-50.16q-12.78,0-17.35,4.37t-4.57,16.3V2901q0,12,4.57,16.3t17.35,4.26h58.06V2946h-68V2933.1l-15.58,3.1v2.41q0,12,4.62,16.3t17.51,4.26h54.84q12.88,0,17.4-4.26t4.52-16.3v-10.43q0-12-4.62-16.3t-17.3-4.26h-57.86v-22.57H1664Zm142.1-11.44v-12.94H1703.75v12.94h42.58v74.12h16.94v-74.12Zm20.26,74.12,11.53-20.36h62.32l11.74,20.36h18.49L1877,2872.12h-15.58l-52.15,87.06Zm42.59-74.32,24,41.43h-48Zm88.5-12.74v66.5q0,11.94,4.62,16.25t17.5,4.31h55.89q12.87,0,17.5-4.26t4.62-16.3v-66.5h-17.24v73.93h-65.86v-73.93Zm158.93,87.06v-34.1H2141l35.94,34.1h22.75l-39.78-34.1h11.94q10.08,0,14.49-3.91t4.42-12.74V2889q0-8.92-4.42-12.88t-14.49-4h-72.5v87.06Zm55.57-72.31c1.38,1.33,2.07,3.61,2.07,6.82v10.43c0,3.48-.65,5.82-2,7s-3.88,1.81-7.69,1.81h-48v-28.09h48q5.5,0,7.59,2Zm64,72.31,11.53-20.36h62.33l11.74,20.36H2340l-53.39-87.06H2271l-52.14,87.06Zm42.59-74.32,24,41.43h-47.94ZM2386,2895.44a79.14,79.14,0,0,0,6.08,6.07l67.51,57.67h11.64v-87.06h-15.69v52.56c0,2.88.12,5.65.36,8.33s.61,5.31,1.1,7.92a66.89,66.89,0,0,0-5.25-6.62,55.86,55.86,0,0,0-5.56-5.32L2380,2872.12h-13v87.06h15.69v-54.06c0-2.61-.11-5.21-.32-7.82s-.51-5.18-.93-7.72A50.56,50.56,0,0,0,2386,2895.44Zm213.1-10.38v-12.94H2496.72v12.94h42.59v74.12h16.93v-74.12Z" transform="translate(0.01 0)"/></svg>