<svg id="Layer_1" data-name="Layer 1" xmlns="http://www.w3.org/2000/svg" viewBox="0 0 629.43 753.88"><defs><style>.cls-1{fill:#fff;}</style></defs><path class="cls-1" d="M887.54,495.78c-.31-91.31,73-171.42,172-172,94.88-.56,172.41,77.13,172.31,172.21-.11,99.55-82.89,174.65-176.78,172.16C965.42,665.78,887.26,592,887.54,495.78Zm324,.1c0-83.48-68.19-151.88-151.44-152-83.89-.07-152.8,67.92-152.49,152,.32,86.82,69.95,152.21,152.27,152A151.77,151.77,0,0,0,1211.54,495.88Z" transform="translate(-744.81 -49.67)"/><path class="cls-1" d="M958.22,254.24c-5.75,0-11.17.12-16.58-.12-.91,0-2.1-1.48-2.55-2.53-3.53-8.24-9.88-12.3-18.64-12.72-9.34-.44-16.46,3.56-21.2,11.51-9,15.11-1.72,35.15,14.22,39.52a21.29,21.29,0,0,0,25.43-11.49c.67-1.37,2.3-3.09,3.59-3.18,5.11-.37,10.27-.15,16.15-.15-.46,2.31-.64,4.06-1.14,5.72-5.16,16.9-19.94,27.18-38.78,27-18.6-.14-34.67-12.08-39.58-29.41-7-24.86,5.15-48.62,28.49-55.2,18-5.07,44.5.48,50.32,27.85A29.72,29.72,0,0,1,958.22,254.24Z" transform="translate(-744.81 -49.67)"/><path class="cls-1" d="M1278.77,488.07c-5.46-34.86,35.38-105.74,68.69-118.39-1.45,7.8-2.41,15.11-4.18,22.21C1337,417,1328.46,441.27,1312.17,462c-7.9,10-17.35,18.38-28.87,24.16C1281.87,486.84,1280.36,487.39,1278.77,488.07Z" transform="translate(-744.81 -49.67)"/><path class="cls-1" d="M772.28,370c31,9.38,71.48,79,68.34,118.11-2.7-1.23-5.27-2.13-7.58-3.48-17.81-10.43-30.44-25.62-39.52-43.88a221.52,221.52,0,0,1-21.23-68.24A19,19,0,0,1,772.28,370Z" transform="translate(-744.81 -49.67)"/><path class="cls-1" d="M1280.17,556.57c-.93-37,43.87-99,78.86-109.64a7.17,7.17,0,0,1,.24,2.33c-8.3,32.53-21.12,62.78-45.33,86.94A78.64,78.64,0,0,1,1280.17,556.57Z" transform="translate(-744.81 -49.67)"/><path class="cls-1" d="M759.77,446.72c36.47,12.18,81.06,74,79.25,110-4-1.62-7.84-2.9-11.43-4.7-16.17-8.14-28.81-20.27-38.65-35.31a208.5,208.5,0,0,1-28.44-65.07C760.16,450.25,760.06,448.77,759.77,446.72Z" transform="translate(-744.81 -49.67)"/><path class="cls-1" d="M1374.24,522.85a9.35,9.35,0,0,1-.59,1.83c-15.76,28.52-35.71,53.32-63.82,70.62a88.79,88.79,0,0,1-36.06,12.29,36.31,36.31,0,0,1-4.43,0C1274.41,574.9,1342.91,519.58,1374.24,522.85Z" transform="translate(-744.81 -49.67)"/><path class="cls-1" d="M850.2,608.28c-5.84-1-11.37-1.69-16.71-3-18.35-4.66-33.79-14.48-47.32-27.48a211.12,211.12,0,0,1-38.38-48.88c-1-1.84-1.95-3.75-3-5.73C773.72,517.59,842.66,573,850.2,608.28Z" transform="translate(-744.81 -49.67)"/><path class="cls-1" d="M783.12,615.46c35.22-11.07,102.18,9.67,122.85,37.81-9.74,3.66-19.67,4.69-29.73,4.25-15.47-.67-30-5-44.13-11.33a207.65,207.65,0,0,1-43.55-26.06C786.9,618.82,785.35,617.38,783.12,615.46Z" transform="translate(-744.81 -49.67)"/><path class="cls-1" d="M1336.25,615.75c-5.33,4-9.77,7.77-14.54,11-20.66,14-42.54,25.43-67.48,29.61-13.75,2.3-27.4,1.67-40.82-2.93C1230.12,626.48,1303.37,603.64,1336.25,615.75Z" transform="translate(-744.81 -49.67)"/><path class="cls-1" d="M960.11,200.91c-4.63,0-9,.26-13.2-.16-1.32-.13-2.44-2.16-4.12-3.77-6.46,5.43-14.79,7.1-23.83,4.71a26.86,26.86,0,0,1-15-10.21c-9-12-8.49-30,1.2-41.16,9.37-10.76,24-12.82,37.66-5.28,5.09-5.07,11.26-1.53,17.24-2.67Zm-15.93-29.39c0-8.69-6.14-14.77-14.73-14.67-8.4.1-14.21,6.05-14.23,14.59,0,8.86,5.88,15,14.39,15S944.21,180.14,944.18,171.52Z" transform="translate(-744.81 -49.67)"/><path class="cls-1" d="M982.35,305.68H965.43V223.89h16.79v29.5c6.65-6,13.43-8.65,21.29-7.43,9.28,1.44,15.8,7.47,16.39,17.44.83,13.89.21,27.87.21,42.17H1003c0-9.35,0-18.61,0-27.87,0-2,.1-4,0-6-.37-6.18-4.28-10.17-10-10.29-5.93-.12-10.34,3.92-10.5,10.27-.25,9.32-.09,18.65-.1,28Z" transform="translate(-744.81 -49.67)"/><path class="cls-1" d="M964.22,687.46c-8.9,2.41-17.66,5.83-26.72,7.07-32.73,4.48-64.14-2.27-95-12.72a4.75,4.75,0,0,1-1.12-.84C861.33,657.76,937.81,660.72,964.22,687.46Z" transform="translate(-744.81 -49.67)"/><path class="cls-1" d="M1277.91,681c-40.44,12.72-80.86,23.31-122.63,5.09,17.81-13.05,38.11-19.17,59.57-21.29C1237.53,662.54,1258.67,667.91,1277.91,681Z" transform="translate(-744.81 -49.67)"/><path class="cls-1" d="M1240.58,280.92H1199c.12,5.51,3.16,9.77,8,11.46,5.22,1.84,12,.89,14.51-3.42,2.68-4.59,6.2-4.66,10.42-4.45,2.63.14,5.27,0,7.87,0,.88,12.34-12.1,23.12-27.46,23.3-19.32.22-32.26-13.85-31.2-33.93.89-17.05,16.82-30,34.11-28.16C1234,247.78,1242.64,262.85,1240.58,280.92Zm-17.12-13.55c-.86-4.75-3.85-7.11-9.75-7.73-6.65-.71-11.1,1.76-13.49,7.73Z" transform="translate(-744.81 -49.67)"/><path class="cls-1" d="M1082.16,175.92h-41.72a11.72,11.72,0,0,0,7.42,10.92c5.19,2.38,12.75,1.33,15.42-3.2,2.49-4.21,5.6-4.41,9.52-4.21,3,.14,5.94,0,8.93,0-.66,14-13.79,24.44-30.91,23.16-18.83-1.41-30.25-16.68-27.73-36.56,2-16,18.34-27.63,35-25.31C1077.29,143.39,1084.33,159.84,1082.16,175.92Zm-16.42-13.57c-2.52-6-6.19-8.17-12.65-8-5.73.18-9.33,2.72-11.1,8Z" transform="translate(-744.81 -49.67)"/><path class="cls-1" d="M1198.57,175.84h-42.14c.56,5.43,3.08,8.94,7.58,11,5,2.3,12.56,1.51,15.08-2.79,2.93-5,6.88-4.78,11.36-4.61,2.47.09,5,0,7.42,0-.21,13.78-14.08,24.2-30.32,23.23-18.37-1.1-30.19-15.65-28.48-35.06,1.48-16.83,17.26-29.09,34.63-26.91C1190.88,142.87,1201.52,157.52,1198.57,175.84Zm-16.27-13.58c-2.92-6.42-7.68-8.07-13.35-7.85-5.17.2-9,2.54-11.29,7.85Z" transform="translate(-744.81 -49.67)"/><path class="cls-1" d="M1057.18,307.84c-18.16-.06-31.54-13.19-31.58-31,0-18.06,13.43-31.22,31.89-31.17,18.07,0,31.6,13.26,31.71,31S1075.48,307.89,1057.18,307.84Zm-14-31c0,8.79,5.68,14.7,14.06,14.71,8.56,0,14.36-6.14,14.24-15.11-.12-8.64-6-14.61-14.39-14.49S1043.19,268.1,1043.22,276.82Z" transform="translate(-744.81 -49.67)"/><path class="cls-1" d="M1078.49,738.65V717.93h13.85v71c-5.16-1-10.6,2.13-15-2.7-12.25,5.88-25.18,5.09-35.27-7-7.6-9.08-8-22.07-1.36-32.07C1048.27,735.66,1059,733.14,1078.49,738.65Zm-13.44,9.76a14.09,14.09,0,0,0-14.6,13.28c-.42,7.55,6.16,14.56,13.83,14.75a14.14,14.14,0,0,0,14.2-13.72A13.69,13.69,0,0,0,1065.05,748.41Z" transform="translate(-744.81 -49.67)"/><path class="cls-1" d="M825.43,134.92h-22V118.4h62.71c0,5,.17,9.72-.17,14.44-.06.78-2.36,1.94-3.66,2-5.79.21-11.6.09-18.23.09v65.7H825.43Z" transform="translate(-744.81 -49.67)"/><path class="cls-1" d="M928.29,785.81v17.75H914.42c-.13-1.47-.35-2.75-.35-4,0-19.65.1-39.3-.11-58.94-.05-4.19,1.58-5.56,5.23-4.85,3.29.63,7.85-2.41,9.66,3,17.19-6,28.31-3.81,36.64,7.28a27.52,27.52,0,0,1,.55,31.78C958.13,789.29,947.46,791.61,928.29,785.81Zm28-22.82a13.68,13.68,0,0,0-13.11-14.58,14.12,14.12,0,0,0-14.8,13,14.45,14.45,0,0,0,13.49,15A14.08,14.08,0,0,0,956.28,763Z" transform="translate(-744.81 -49.67)"/><path class="cls-1" d="M1178.23,269.9c-5.1,0-10.23.11-15.34-.1-1-.05-2.23-1.18-3-2.11-4-5.17-9.47-7-15.34-5s-9.67,7.47-9.6,14.26,3.83,12.17,9.88,14.08c5.66,1.79,11.1-.12,15-5,.82-1,2.2-2.25,3.38-2.31,4.94-.26,9.91-.11,14.84-.11.38,13.43-12,23.92-28.07,24.27-18.76.42-32.28-12.49-32.42-30.94-.14-18.14,13.22-31.32,31.66-31.21C1165.91,245.78,1178.41,256,1178.23,269.9Z" transform="translate(-744.81 -49.67)"/><path class="cls-1" d="M1277.41,403.76c9,34.28-10.31,96.17-32.8,105.85C1234.27,482.13,1253.24,420.42,1277.41,403.76Z" transform="translate(-744.81 -49.67)"/><path class="cls-1" d="M874.27,510.4c-3.13-2.81-6.26-5.2-8.89-8.06-10.28-11.16-16.63-24.43-20-39.1-4.42-19.39-6.52-39-4.08-58.93C862.89,411.49,884.81,481.17,874.27,510.4Z" transform="translate(-744.81 -49.67)"/><path class="cls-1" d="M828.68,494.47c36.73,12.72,62,50.52,69.39,86.48a47.51,47.51,0,0,1-5.75-1.34c-14.62-5.45-26.34-14.84-35.66-27.15a166,166,0,0,1-26.93-53.09C829.32,498,829.12,496.55,828.68,494.47Z" transform="translate(-744.81 -49.67)"/><path class="cls-1" d="M1280.34,563.86c-7,30.24-57.94,72.19-84.59,69.67C1199.75,606.66,1254.08,561.91,1280.34,563.86Z" transform="translate(-744.81 -49.67)"/><path class="cls-1" d="M1221.38,580.7c2.48-32.29,41.83-81.26,68.59-85.72C1289.78,525.51,1248.14,577.81,1221.38,580.7Z" transform="translate(-744.81 -49.67)"/><path class="cls-1" d="M924.27,634.57c-6-1.21-11.22-1.91-16.24-3.36-12.86-3.74-24-10.65-33.73-19.74a172,172,0,0,1-33.6-42.54c-.64-1.16-1.25-2.35-1.8-3.56a5.94,5.94,0,0,1-.25-1.43C863.94,561.08,913,601,924.27,634.57Z" transform="translate(-744.81 -49.67)"/><path class="cls-1" d="M1016,738.67c4.55-5.41,10-1.88,15.47-3.15v52.3c-7.06,2.24-13.26,1.38-15.2-2-15,6.34-27.6,3.95-35.91-6.82a27.56,27.56,0,0,1,0-33.4C988.51,734.85,1001,732.46,1016,738.67Zm-26.74,23.42a13.91,13.91,0,1,0,27.81.23,13.77,13.77,0,0,0-13.82-13.93A13.58,13.58,0,0,0,989.23,762.09Z" transform="translate(-744.81 -49.67)"/><path class="cls-1" d="M1288.57,159.91c-4.73,0-9,.16-13.31-.1-1.15-.07-2.15-1.56-3.34-2.16a24.22,24.22,0,0,0-6.32-2.59c-.87-.14-2.74,1.58-2.94,2.67a4.22,4.22,0,0,0,1.91,3.5,39.69,39.69,0,0,0,8.92,3.06c14.08,2.83,18.17,11.21,16.64,21.2-1.61,10.5-11.87,17.8-23.63,17.19-13-.66-21.25-8.41-21.83-21.47,5.23,0,10.45-.12,15.66.13.78,0,1.29,2.08,2.24,2.75,1.88,1.32,3.9,3,6,3.24,1.39.19,4.21-1.63,4.35-2.8.21-1.65-1-4.45-2.43-5.14-3.84-1.89-8.07-3-12.19-4.28-5.74-1.77-10.18-5-12.13-10.87a16.52,16.52,0,0,1,7-19.63c8.57-5.3,17.7-5.69,26.64-1.08C1285.93,146.67,1288.92,152.05,1288.57,159.91Z" transform="translate(-744.81 -49.67)"/><path class="cls-1" d="M966.2,142.46c5.24,0,9.72.14,14.18-.06,3-.13,4.49.72,5.21,3.83,1.24,5.32,3,10.52,4.56,15.78,1.47,5.09,2.91,10.2,4.74,16.63,1.18-3.68,2.05-6.18,2.78-8.71,2.21-7.66,4.55-15.28,6.46-23,.89-3.61,2.61-4.8,6.22-4.54,4.27.31,8.58.08,13.48.08-.52,1.94-.81,3.34-1.26,4.69-5.4,16.4-10.89,32.76-16.17,49.2-1.06,3.3-2.44,5-6.23,4.65-4.78-.44-10.8,1.39-14.08-.91s-3.82-8.42-5.35-12.94c-4.46-13.22-8.81-26.47-13.19-39.71C967.09,146.05,966.78,144.61,966.2,142.46Z" transform="translate(-744.81 -49.67)"/><path class="cls-1" d="M1245.68,735.07a27.31,27.31,0,0,1-.36,54.62,27.31,27.31,0,1,1,.36-54.62Zm13.79,27.19a13.88,13.88,0,0,0-14-13.87,14.06,14.06,0,0,0-14.1,13.78,14,14,0,1,0,28.06.09Z" transform="translate(-744.81 -49.67)"/><path class="cls-1" d="M813.25,730.35V718h51.54a74.88,74.88,0,0,1-.16,9.71c-.13,1-2,2.39-3.23,2.51a61,61,0,0,1-10.47.1c-4-.29-5.16,1.43-5.13,5.25.15,15.48.07,31,0,46.44,0,2.13-.2,4.25-.32,6.57H831.87c-.12-2.38-.31-4.5-.31-6.62,0-15.32-.15-30.64.06-46,.06-4.37-1.31-6-5.71-5.7C821.81,730.6,817.66,730.35,813.25,730.35Z" transform="translate(-744.81 -49.67)"/><path class="cls-1" d="M1115.54,200.92v-6.24c0-23.49.11-47-.1-70.48,0-4.64,1-6.41,6-6.29,11.75.28,11.75,0,11.75,12,0,22-.08,44,.07,66,0,3.83-1,5.46-5,5.11S1120.3,200.92,1115.54,200.92Z" transform="translate(-744.81 -49.67)"/><path class="cls-1" d="M1106.86,200.92h-17.32c-.14-2.12-.34-3.73-.34-5.34,0-24,.1-48-.11-72,0-4.45,1.33-5.69,5.66-5.66,12.11.09,12.11-.08,12.11,12.07v70.91Z" transform="translate(-744.81 -49.67)"/><path class="cls-1" d="M1213.15,751.9c-3.62,0-7.09.16-10.53-.11-1-.07-1.8-1.46-2.73-2.19-1.52-1.19-3.15-3.37-4.6-3.27-2.49.18-6.09,1.14-7,2.94-1.67,3.13,1.72,4.4,4.24,5.22,3.64,1.17,7.38,2,11,3.16,6.29,2,11,5.76,11.6,12.83s-2.48,12.74-8.79,16.09c-8.6,4.57-17.3,4.33-25.61-.84a14.88,14.88,0,0,1-7-15.26c3.53,0,7.17-.19,10.77.12,1,.09,1.91,1.66,3,2.43,2.23,1.64,4.34,4,6.84,4.59,2.81.68,6.23,0,6.89-4,.61-3.68-2.13-4.93-4.9-5.84-3.31-1.08-6.71-1.91-10-2.93-8-2.48-12.22-7.46-12.17-14.43,0-6.76,4.58-12.24,12.41-14.32,7.14-1.89,14.25-1.73,20.61,2.62C1211.37,741.71,1213.81,745.83,1213.15,751.9Z" transform="translate(-744.81 -49.67)"/><path class="cls-1" d="M1122.91,772.18c3.6-11.38,7-21.1,9.69-31,1.21-4.34,3.17-6.11,7.63-5.56a77,77,0,0,0,8.78.06,45.11,45.11,0,0,1-1,4.48c-5.14,14.92-10.43,29.79-15.38,44.76-1.06,3.2-2.66,4-5.74,4-12.17,0-12.2.14-16.26-11.51q-6.31-18.12-12.52-36.27c-.47-1.39-.77-2.83-1.46-5.34,4.74,0,9-.24,13.11.17,1,.1,2.25,2.16,2.71,3.54C1115.88,749.89,1119.15,760.35,1122.91,772.18Z" transform="translate(-744.81 -49.67)"/><path class="cls-1" d="M1205.91,142.66h15.18l1.53,4.84c4.93-6.18,11.37-5.31,18.53-4.69,0,4.57.13,9-.11,13.44,0,.89-1.45,1.76-2.35,2.5-.31.25-1,.06-1.47.09-14,.69-14,.69-14,14.59,0,7.83-.09,15.67,0,23.5,0,3-1,4.18-4,4-4.3-.2-8.62-.05-13.3-.05Z" transform="translate(-744.81 -49.67)"/><path class="cls-1" d="M861.43,142.77c1.48-.12,2.61-.29,3.74-.3,3.81,0,7.62,0,11.71,0,.27,2,.5,3.74.74,5.52,6.45-6,8-6.39,18.82-5v15.88h-6.2c-9.87,0-11.8,2-11.8,12.07q0,12.24,0,24.46v5.22h-17Z" transform="translate(-744.81 -49.67)"/><path class="cls-1" d="M906,640.69c30.17-4.18,54.73,6.55,77.44,24.82C966.7,674.38,919.12,659,906,640.69Z" transform="translate(-744.81 -49.67)"/><path class="cls-1" d="M1213.11,641c-14,18.08-57.7,32.36-76.55,25.27C1146.4,653.49,1183.68,634.26,1213.11,641Z" transform="translate(-744.81 -49.67)"/><path class="cls-1" d="M1094.85,305.61V247.77h16.53v57.84Z" transform="translate(-744.81 -49.67)"/><path class="cls-1" d="M1069.43,74.81c0,14.25-10.48,24.91-24.38,24.89s-24.32-10.57-24.44-24.85,10.64-25.3,24.67-25.17S1069.46,60.52,1069.43,74.81Zm-8.25.32c.12-10.44-6.26-17.68-15.85-18-9.26-.31-16.39,7.23-16.45,17.42s6.86,17.82,16.13,17.85S1061.07,85.06,1061.18,75.13Z" transform="translate(-744.81 -49.67)"/><path class="cls-1" d="M871.43,788.11a11.86,11.86,0,0,1-1.7.6c-12.54,1-12.54,1-12.54-11.38,0-12.16.11-24.33-.07-36.48,0-3.8.94-5.63,5-5.22,2.79.27,5.63,0,8.69,0l.8,4.37c9.65-5.45,18.91-10.29,16.32,8.94l-7.4.38c-6.49.31-9,2.75-9.11,9.27-.13,8,0,16,0,24C871.43,784.43,871.43,786.24,871.43,788.11Z" transform="translate(-744.81 -49.67)"/><path class="cls-1" d="M1292,740.8c1.77-1.46,2.68-2.8,3.8-3,4-.76,8-1.13,12-1.65.29,3.73.72,7.47.72,11.2,0,.65-1.75,1.69-2.81,1.88-1.94.34-4,.06-6,.27-5.08.51-7.36,3-7.41,8.15-.09,8.82-.19,17.65,0,26.47.1,3.75-1.13,4.91-4.84,4.8-11.41-.36-9.41,1.32-9.51-9.51-.13-13,.09-26-.11-38.95,0-3.77,1.21-5.19,4.88-4.8a32,32,0,0,0,5,0C1290.93,735.51,1293.37,736,1292,740.8Z" transform="translate(-744.81 -49.67)"/><path class="cls-1" d="M1075.62,64.73c.25-6.9,3.7-11.84,9.56-13.91,7.23-2.56,15.69-.71,19.77,4.33a14.65,14.65,0,0,1,.57,17.28c-2.82,4-6.66,7.36-10.14,10.91-2.19,2.23-4.56,4.28-7.84,7.34,5.76,0,10.32,0,14.88,0,2.86,0,6.1-.92,6,4.12-.06,4.73-3.08,3.86-5.77,3.87-7.33,0-14.67.12-22-.05-1.79,0-3.55-1-5.32-1.55.69-2.25.74-5.1,2.19-6.64,4.78-5.09,10.1-9.66,15.14-14.51a41.08,41.08,0,0,0,5.72-6.24c2.86-4.24,1.81-9.09-2.06-11.34-4.14-2.39-10.46-1.22-12.12,3.09C1082.3,66.47,1079.21,65.53,1075.62,64.73Z" transform="translate(-744.81 -49.67)"/><path class="cls-1" d="M993.42,90.69c6.65,0,11.81.1,17,0,3-.09,4,1.12,4,4.12,0,3.16-1.31,4-4.2,4-8-.11-16,0-24-.1-1.62,0-4.57-.95-4.58-1.53-.06-2.11.2-4.87,1.53-6.26,5-5.31,10.56-10.15,15.84-15.23a38.25,38.25,0,0,0,5.36-5.89c2.87-4.27,1.89-9.07-2-11.34-4.11-2.42-10.45-1.27-12.14,3-1.93,4.92-5,4.25-8.64,3.39.06-6.7,3.56-11.78,9.44-13.91,7-2.54,15.27-.91,19.48,3.82,3.67,4.13,4.74,11.69,1.48,16.84-2.45,3.87-5.9,7.14-9.12,10.46C1000.27,84.72,997.32,87.14,993.42,90.69Z" transform="translate(-744.81 -49.67)"/><path class="cls-1" d="M1154.37,735.72a101.85,101.85,0,0,1,11,.15,4.24,4.24,0,0,1,2.74,3.07q.27,23.44,0,46.89c0,1-1.8,2.73-2.91,2.85a100.25,100.25,0,0,1-10.77.14Z" transform="translate(-744.81 -49.67)"/><path class="cls-1" d="M907.35,762.18c0,7.49-.13,15,.06,22.46.08,3.32-1.15,4.32-4.35,4.25-12.13-.28-9.85,1.32-10-9.5-.14-13,.09-26-.11-38.94-.05-3.75,1.19-4.92,4.87-4.83,11.34.26,9.33-.92,9.49,9.09C907.43,750.53,907.35,756.36,907.35,762.18Z" transform="translate(-744.81 -49.67)"/><path class="cls-1" d="M1078.68,677.68c19.5-8.3,48.45-6.73,63.58,6.21C1128.51,690.77,1091.37,692.53,1078.68,677.68Z" transform="translate(-744.81 -49.67)"/><path class="cls-1" d="M976.63,684.22c15.32-13.57,46.54-14.73,63.55-6.46C1029.76,691.1,997.28,691.69,976.63,684.22Z" transform="translate(-744.81 -49.67)"/><path class="cls-1" d="M1296.16,154.54v-9.66c4.14-.3,8-1.17,8.95-6.51-1.22-.19-2.27-.32-3.32-.52-5-1-7.77-4.22-8.6-9.1a10.71,10.71,0,0,1,5.93-11.12c4.3-2,8.46-1.56,12,1.69,8.14,7.44,5.46,28-4.46,32.83C1303.73,153.58,1300.13,153.69,1296.16,154.54Z" transform="translate(-744.81 -49.67)"/><path class="cls-1" d="M1133.35,75c0,6.49-.09,13,0,19.46,0,2.86-.71,4.25-3.89,4.27s-4.39-1.16-4.35-4.38c.12-10.31-.06-20.63.09-30.94,0-3.36-.49-5.57-4.54-5.13-2.9.32-4.69-.48-4.58-4s2-3.55,4.59-3.62c12.64-.35,12.64-.38,12.64,12.41Z" transform="translate(-744.81 -49.67)"/><path class="cls-1" d="M1103.39,240.91a10.7,10.7,0,1,1-.35-21.4,10.7,10.7,0,1,1,.35,21.4Z" transform="translate(-744.81 -49.67)"/><path class="cls-1" d="M1069.43,685.84c.08,6-3.91,10.1-9.82,10.08a9.69,9.69,0,0,1-9.95-9.6,9.8,9.8,0,0,1,10-10.18A9.5,9.5,0,0,1,1069.43,685.84Z" transform="translate(-744.81 -49.67)"/><path class="cls-1" d="M900.24,732.74a8.55,8.55,0,0,1-8.54-8.52,8.53,8.53,0,1,1,17,0A8.62,8.62,0,0,1,900.24,732.74Z" transform="translate(-744.81 -49.67)"/><path class="cls-1" d="M1169.43,724.5a8.44,8.44,0,0,1-8.71,8.23,9,9,0,0,1-8.38-8.83,8.74,8.74,0,0,1,9.23-8.35C1166.35,715.79,1169.6,719.5,1169.43,724.5Z" transform="translate(-744.81 -49.67)"/><path class="cls-1" d="M959.28,463.5l-18.81-20.73c2.44-.14,3.95-.3,5.47-.3,11.33,0,22.66.1,34-.11a14.68,14.68,0,0,0,6.93-2q72.76-43.07,145.53-.08a15.65,15.65,0,0,0,7.4,2.09c12.6.21,25.21.09,39.21.09l-19.34,21.42c14.25,14.06,20.58,31,18.52,50.72-1.47,14-7.61,26.08-17.75,36-20.43,19.94-55.3,24.11-81.92,1.5-6.18,6.66-12.37,13.33-18.89,20.34-6.45-7-12.53-13.52-18.93-20.41-14.54,12.44-31.3,17.49-50.07,14.57-13.4-2.08-24.62-8.52-34.09-18.33C939,530.1,931.27,492.58,959.28,463.5ZM1158.19,508a39.57,39.57,0,0,0-39.3-40.06c-21.3-.05-39.44,17.81-39.54,38.91-.1,22.49,17.38,40.5,39.39,40.6C1140.26,547.54,1158.09,529.71,1158.19,508ZM1040,507.62c0-21.67-18.37-39.9-39.92-39.69a39.76,39.76,0,0,0,.11,79.51C1021.61,547.73,1040.06,529.27,1040,507.62Zm62.43-60c-29-10.69-56.69-10.82-85.67.07,22.54,10.45,37.58,25.82,42.85,50C1064.83,473.38,1080.1,458.13,1102.46,447.65Z" transform="translate(-744.81 -49.67)"/><path class="cls-1" d="M1118.65,528.92a21.2,21.2,0,0,1-21.45-21,21.58,21.58,0,1,1,43.15-.17C1140.32,519.78,1131,528.94,1118.65,528.92Z" transform="translate(-744.81 -49.67)"/><path class="cls-1" d="M1000.24,528.92A20.89,20.89,0,0,1,979,507.38a21.43,21.43,0,0,1,42.86.32C1021.82,519.85,1012.56,529,1000.24,528.92Z" transform="translate(-744.81 -49.67)"/><path class="cls-1" d="M1245.75,231.79H1243V241a1.68,1.68,0,0,1-.36,1.18,1.19,1.19,0,0,1-.92.39,1.21,1.21,0,0,1-.93-.39,1.72,1.72,0,0,1-.36-1.18v-9.24h-2.81a1.38,1.38,0,0,1-1-.29,1,1,0,0,1-.32-.76,1,1,0,0,1,.33-.78,1.42,1.42,0,0,1,1-.29h8.18a1.49,1.49,0,0,1,1,.29,1,1,0,0,1,.32.78,1,1,0,0,1-.33.76A1.43,1.43,0,0,1,1245.75,231.79Z" transform="translate(-744.81 -49.67)"/><path class="cls-1" d="M1252.89,240.46l-2-8.09v8.77a1.63,1.63,0,0,1-.32,1.09,1.13,1.13,0,0,1-.87.37,1.11,1.11,0,0,1-.85-.36,1.59,1.59,0,0,1-.32-1.1V231.08a1.25,1.25,0,0,1,.43-1.12,2.11,2.11,0,0,1,1.17-.29h.8a2.94,2.94,0,0,1,1,.13.85.85,0,0,1,.48.47,7,7,0,0,1,.36,1.1l1.84,7,1.85-7a6.08,6.08,0,0,1,.36-1.1.85.85,0,0,1,.48-.47,2.91,2.91,0,0,1,1-.13h.8a2.11,2.11,0,0,1,1.17.29,1.25,1.25,0,0,1,.43,1.12v10.06a1.58,1.58,0,0,1-.32,1.09,1.13,1.13,0,0,1-.87.37,1.1,1.1,0,0,1-.84-.37,1.58,1.58,0,0,1-.33-1.09v-8.77l-2,8.09c-.13.53-.24.91-.33,1.16a1.48,1.48,0,0,1-.46.67,1.36,1.36,0,0,1-.94.31,1.41,1.41,0,0,1-.76-.2,1.35,1.35,0,0,1-.48-.5,2.7,2.7,0,0,1-.28-.67C1253,241,1253,240.73,1252.89,240.46Z" transform="translate(-744.81 -49.67)"/></svg>